<?xml version="1.0" encoding="UTF-8"?>
<svg id="Layer_1" xmlns="http://www.w3.org/2000/svg" version="1.1" viewBox="0 0 5000 1026.2">
  <!-- Generator: Adobe Illustrator 29.6.0, SVG Export Plug-In . SVG Version: 2.1.1 Build 207)  -->
  <defs>
    <style>
      .st0 {
        fill: #fff;
      }

      .st1 {
        fill: #fcbe3b;
      }

      .st2 {
        fill: #e2e2e2;
      }

      .st3 {
        fill: #185ccb;
      }

      .st4 {
        fill: #032e82;
      }
    </style>
  </defs>
  <g>
    <g>
      <g>
        <path class="st0" d="M4699.4,500l14-88.2h-52.9l-64,404h61.7l-26.3,165.8h-325.5l26.3-165.8h61.7l64-404h-52.9l-14,88.2h-165.8l40.1-253.2h638.6l-40.1,253.2h-164.9Z"/>
        <g>
          <path class="st2" d="M4601.2,965.6c5.8,3.3,11.8-.6,15.9-5.8,5.3-6.8,7.8-16.1,9.6-24.6,4.4-22.2,8.3-46,12.2-68,1.3-7.5,2.5-16.6,1.3-23.5-1.6-10.7-9.6-16.5-18.4-10-5.6,4.1-9.4,12.2-11.5,19.4-5.4,21.3-8.2,43.7-12.4,65.5-1.9,13.2-9,38.1,3.2,47h.1,0Z"/>
          <path class="st2" d="M4872.3,263c-10.2,5-14.7,20.8-16.5,32.1-7.2,40.8-14.5,83.2-21.7,124.4-1.8,10.7-3.8,21.7-5.6,32.3-1.2,7.4-2.3,16.4-.7,23.1,3.5,14.6,17.3,12,23.7-.1,3.2-5.9,4.6-13.2,5.8-20,8.5-50.4,22.6-124.9,29.9-173.2,1.3-9.8-2.6-23.9-14.7-18.6h-.2,0Z"/>
          <path class="st2" d="M4360.5,483.4c7.3,4.4,14.4-1,19.6-9.3,4.7-7.8,6.8-16.8,8.6-25.7,2.4-14.5,6.9-30.4,1.6-44.1-7.5-15.5-21.6-4.2-26.4,7.7-3.1,6.9-5,15.3-6.6,23.2-2.2,14-8.7,38.7,2.9,48.1h.3Z"/>
          <path class="st2" d="M4561.5,829.5c5.9,3.6,13.8-.5,16.6-6.6,17.3-83.7,53.6-318.1,69.6-407.8.5-3.3.8-6.3.4-9.3-2.2-12.6-15.8-11-22.4-.5-3.3,4.9-4.9,10.4-6.2,16.6-20.2,122.1-47.4,271.8-65,392.1-.2,5.7,2.5,13.2,6.9,15.4h.1Z"/>
        </g>
      </g>
      <g>
        <path class="st0" d="M4199.5,524.7l43.7-275.8h-131.4l-26.1,165h55.6l-34.1,215.2-148.8-380.2h-249.6l-26.1,165h57.3l-64,404h-57.3l-26.2,165.8h312.2l26.3-165.8h-57.3l34.1-215.2,148.7,381h192.3l72.7-458.9h-122Z"/>
        <g>
          <path class="st2" d="M4097.1,656.7c-.4-9.6-2.2-19.3-5-28.4-2.6-8.6-6-17-9.3-25.4-39.5-97.7-87.8-222.5-128.3-320-4.9-9.9-16.1-25-25.9-21.9-4.7,2.6-4.4,8.3-2.8,14.6,35.4,90.4,121.6,309.2,159.5,399.4,9.5,20.1,12.8-6,11.9-18.1v-.2h-.1Z"/>
          <path class="st2" d="M3880.9,550.3c-5.8-1.2-7.8,14.1-8.9,19.1-2.6,15-5.2,30.9-7.7,46.3-8.5,51.4-17,102.5-25.5,153.7-1.2,7.1-2.3,14-3.5,20.9-1.6,11.4-4.9,23.7-3.2,34.7,3.1,17.3,17.4,15.3,23.7,1.4,1.5-3.2,2.6-6.8,3.4-10.6,10.5-59.9,26.6-152.8,35.1-212.6,1-8.8.7-17.6-.9-26.2-1.9-9.1-5.7-23.4-12.4-26.7h-.1Z"/>
          <path class="st2" d="M3874.3,967.8c6.2,3.4,12.6-2.1,16.5-7.8,7.4-10.9,9.6-25.2,12.1-38.1,3.2-17.7,6.8-36.1,9.4-53.9,1-7.2,1.6-15.7.4-22.2-1.9-10.6-8.7-16.6-17.4-10.2-8,6.1-12.4,18.3-14.8,28.3-4.3,19.5-7.3,39.3-10.9,59-2,12.9-7.1,36.6,4.7,44.9h0Z"/>
          <path class="st2" d="M4290.8,540.8c-4.7,2.6-9.7,8.9-12.9,17.4-1.6,4.3-2.7,9.1-3.7,14-17.9,104.1-39.5,232.8-57.7,339.6-2,13.4-6,28.2-4.4,41.3,2.4,18.6,16.3,20.2,23.3,3.7,19.1-95.1,53.3-305.9,68.5-398.4.6-5,.8-8.9-.7-13-1.8-5.2-6.9-7.8-12.4-4.7h0Z"/>
        </g>
      </g>
      <g>
        <path class="st0" d="M3598.7,413.8l-64,404h57.3l-26.3,165.8h-316.7l26.3-165.8h57.3l64-404h-57.3l26.1-164.9h316.7l-26.1,164.9h-57.3Z"/>
        <g>
          <path class="st2" d="M3534,967.4c3.9,2.2,9.6,1.5,13.6-1.5,5.5-3.8,8.2-10.7,9.7-17.1,5.7-28.7,11.5-62,16.3-90.8,1.2-8,2.7-19.7-5.5-24-5.3-2.7-11.8-.5-15.9,4-4.3,4.5-6.2,11.1-7.6,17.2-4.6,23.5-8.7,48.4-12.9,71.7-1.2,10.7-9.1,34.1,2.1,40.4h.2,0Z"/>
          <path class="st2" d="M3647.6,264.9c-13.2,5.6-13.7,29.5-16.6,42.1-4,24.9-9.9,50.4-12.7,75.2-.1,4,.2,7.5,1.9,10.8,4.5,8.8,16.4,6.6,21.6-.7,3.9-4.9,5.5-11.3,6.7-17.4,5.1-27.8,11-60.4,15.6-88.3.8-5.6,1.2-12.4-1.6-17.2-2.8-5.1-9.2-7-14.7-4.6h-.2Z"/>
          <path class="st2" d="M3498.7,831.8c6.2,2.5,14.7,0,17.9-5.9,14-70.7,56.2-338.5,69.2-413.3.9-4.7.7-9.6-4.4-12.2-4.9-2.6-11.5-1.9-15.8,1.9-5.9,5.4-6.6,13.6-8,21.3-19.5,120.7-47,279-65.2,396.6-.1,5.2,1.6,9.6,6.1,11.6h.2Z"/>
        </g>
      </g>
      <g>
        <path class="st0" d="M3321,364.1l-98.7-117.3h-468.4l-26.1,165h57.3l-64,404h-57.3l-26.2,165.8h316.7l26.2-165.8h-57.3l16.3-103.2h100.6l20,23.8-38.8,245.2h202l26.3-165.8h0l21.8-137.6-49.6-60,68.4-59.1,30.9-195h0ZM3093.7,523.8l-27.6,23.8h-100.6l21.5-135.8h100.6l20,23.8-14,88.2h.1Z"/>
        <g>
          <path class="st2" d="M3306.8,366.6c-1.9-6-5.8-11.6-10.1-16.4-18.8-21.1-43.9-48.6-63.4-70-6.3-6.9-13-13.9-21.8-17.2-6.2-2.3-13.6-2.6-13.7,3.5,0,3.5,3.7,8.5,8.1,13.4,20.4,22.8,44.7,49,64.6,71.5,4.1,4.7,7.6,10,9.2,16,1.6,5.6,1.6,11.9.7,18.3-8.1,47.6-17,103.7-26,150.4-3.7,15.8-15.8,26-28.5,35.9-10.5,8.5-21,16.8-31.5,25.3-7.7,6.5-15.1,12-15.3,21.4-.1,6.8,5.9,14.3,10.6,19.8,10.5,12.8,23.4,24.3,32.1,38.5,8.9,15.2,2.9,33.2.5,49.4-5.5,32.4-11.1,65.2-16.6,97.5-5.9,35-12.9,75.1-19.1,111.7-.9,5.8-2.1,11.7-1.9,17,.3,16.8,17.2,18,23.8,3.8,2.7-5.5,3.8-13,5.2-19.8,7.2-40.5,13.5-80.8,20.6-121.2,5.7-33.6,11.7-68.7,17.5-102.5,1.4-8.3,2.9-17.2,1.2-25.3-1.8-9.4-7.8-17.3-14-24.3-7.6-8.8-15.6-17.4-23.3-26.5-13.1-15-12.9-24.7,3.6-37.7,10.1-8.3,20.9-16.7,31.3-25.1,8.9-7.3,18.8-14.4,24.5-23.1,6.1-8.8,7.8-19.4,9.6-29.8,7.5-44.6,17.1-99,23.4-138,.7-5.4.5-11-1.2-16.3v-.2h-.1Z"/>
          <path class="st2" d="M2922.1,965.1c4.3,2.8,11,1.5,15.2-2.1,4.5-3.7,6.8-9.7,8.2-15.5,5.7-27.9,11.2-62.7,16.2-90.5.9-5.6,2-11.7.6-17.1-1.3-5.2-5.6-9-10.9-9.1-7.8-.3-13.7,6.9-16,14.2-2.7,8-3.7,16.6-5.3,24.9-3.3,18.9-6.9,39-10.2,57.5-1.2,10.6-8.3,30.7,2.1,37.7h.1,0Z"/>
        </g>
      </g>
      <g>
        <path class="st0" d="M2701.5,434.4l20.7-130.5-48-57.1h-468.4l-26.1,165h57.3l-64,404h-57.3l-26.3,165.8h316.7l26.2-165.8h-57.3l14.2-90h209.1l132.5-114.4,28-177h-57.3,0ZM2543.5,537l-27.6,23.8h-100.6l23.6-149.1h100.6l20,23.8-16.1,101.4h.1Z"/>
        <g>
          <path class="st2" d="M2664.4,448.6c6,3.1,12.9.8,17.9-4,8.2-8.2,10.1-20.7,12.7-31.8,1.2-5.7,2.5-11.5,3.7-17.4,3.1-15.2,6.2-30.5,9.4-45.8,6.5-29.6,9-44.1-15.1-65.3-8.7-7.9-32.3-26.5-43.1-20.6-6.4,6.3,11.1,22,15.4,27.7,8,9,12.6,17.7,12.4,29.1,0,7.5-1.6,15.1-3.1,22.6-5,24.2-10.9,51-15.7,75.3-1.8,9.9-4.6,24.4,5.4,30.3h.1Z"/>
          <path class="st2" d="M2728.5,450.6c-11.3,5.5-12.3,21-14.6,32.1-3.2,19-6.6,38.9-9.8,58.1-1.5,8.7-2.9,17.3-4.4,25.9-1.5,8.3-2.6,16.9-5.1,24.9-3.1,10.6-10.1,19.1-18.5,26-32.5,27-67.1,53.6-99.3,80.6-3.1,3-8.6,8.1-5.9,11.5,1.4,1.4,4.8,1.7,8.9.9,9.1-1.8,17.8-7.5,25.1-13.2,30.1-24.1,67.9-54.6,97-78.1,5.6-4.6,11.1-9.5,14.9-15.7,3.7-5.7,5.9-12.5,7.3-19.2,6-31.4,12.1-71,17.4-101.7,1.2-8.1,3.6-17.3,1.1-25.2-1.8-6-8.2-9.6-13.9-7h-.2Z"/>
          <path class="st2" d="M2374.5,965.5c3.5,2.1,8.4,1.5,12.3-1.2,5.7-3.8,9-11.2,10.8-17.9,6.2-27.8,10.8-59.1,15.8-86.3.9-5.7,1.9-11.9.9-17.5-1.5-10.7-11.3-15.6-19.9-8.4-5.2,4.3-8,11.5-9.6,18.1-4.7,21.7-8,44.6-12.2,66.5-1.4,12-10.3,39.2,1.7,46.6h.2Z"/>
        </g>
      </g>
      <g>
        <path class="st0" d="M656.6,433.9c-6.7,0-12.4-2.7-16.7-7.8-4.3-5.1-5.9-11.3-4.7-17.8l26.4-141.9-17.1-20.3h-333.3l-136.2,117.6-66.8,421.9-12.6,79.3,98.9,117.6h319.4l105.4-89,85.4-459.5h-48.1ZM473,793.2l-26.6,23h-116.7l-20.2-23,1.2-7.4,55.6-350.6,27.6-23.9h116.7l19.2,23.9-1.1,7.3-55.6,350.7h-.1Z"/>
        <g>
          <path class="st2" d="M588,412.7c2.9,21.2,23.1,34.6,42.1,38,3.3.4,10.4,1.9,11.2-2.6-.4-5-4.1-8.7-6.9-13.7-3-4.7-6.1-10.1-7.8-15.8-4.9-16.2-.4-33.3,3.5-49.3,5.8-23.6,12.5-47,17.7-70.8,1.2-6.1,1.9-12.6,1-18.5-2.9-19-20.8-22.9-30.3-5.4-4.6,8.4-6.1,18.5-8.6,29-3.9,16.2-8.2,32.3-12.5,49-4.6,19.5-12.1,40.5-9.3,60v.2h-.1Z"/>
          <path class="st2" d="M297.6,830.6c11,3.4,13.6-.9,9.6-9.2-11.1-21.5-17.6-28-12-53.9,13.2-68.7,48.4-255.6,62.1-325.9.9-4,2.2-7.8,4.2-11.6,4.5-9.5,18.5-20.7,21-29.2,1.6-9.7-21.3.6-26.6,4.1-8.6,5.2-16.6,12.2-22.2,20.6-3.5,5.3-5.7,10.6-7.1,16.1-14.8,74.4-42.7,224.4-60.2,315.1-2.4,12.5-5.1,25-2.1,37.7,3.1,15.4,17.2,31.1,33.2,35.9h.2v.3h-.1Z"/>
          <path class="st2" d="M673,448.1c-4.8.9-9.6,4.8-11.8,9.9-19.8,80.7-65,327.9-84.7,411-1.2,5.4-2.6,10.3-5.4,15.1-5,9.4-17.4,19.7-26.9,27-12.2,9.6-25.3,19.4-37.9,29.3-6.3,5.1-26.5,19.6-21.2,25,1.2.8,3.5.9,6.7.2,5.7-1.4,12.1-4.4,17.7-7.7,19.3-12,37.5-27.9,55.4-41.3,8.5-6.6,17.6-13.5,25.1-21,8.7-8.5,12.6-17,14.8-28.3,17.7-86.8,69-326.9,82.1-411.5-1.2-6.1-7.5-9.3-13.8-7.9h0v.2h0Z"/>
        </g>
      </g>
      <g>
        <polygon class="st4" points="1604.5 245.6 1447.2 245.6 1284.7 382.6 1263 499.3 1354.9 499.3 1296.1 815.8 1204.2 815.8 1173.3 981.9 1541.9 981.9 1572.8 815.8 1498.6 815.8 1604.5 245.6"/>
        <g>
          <path class="st3" d="M1509.7,965.2c6.9,5.1,18.7-1.2,24.1-18.2,1.1-3.4,1.9-6.8,2.8-10.4,2.6-11.9,5.2-24.4,7.9-36.5,1.9-8.9,3.8-17.9,5.8-26.8,2.7-15,9.6-33.5-1.6-41.4-4.7-2.5-9.4-.7-13.7,3-5.5,4.3-10,15.3-11.6,23.7-2.2,9.4-4.6,21.1-7.2,33.2-3.2,15.1-6.6,30.8-9.3,43.3-2.3,9.8-4.6,24.9,2.8,30.1h0Z"/>
          <path class="st3" d="M1469.8,830.2c9.4-2.8,11.9-11.7,13.5-21.6,30.2-156.6,68.8-356.5,99.5-515.3,1.2-8.2,4.8-19.3,3.2-25.3-2.2-8.5-13-9.7-19.9-3.4-3.2,3-4.9,6.4-6,11.2-17.3,88.8-86.9,450-104.1,539.1-2.3,10,3.2,18.1,13.7,15.4h.1Z"/>
        </g>
        <path class="st1" d="M1632.2,57.9l23,135.8,123.5,43.1c7.6,2.7,12.9,11.2,12,19.1-.6,4.8-3.3,8.2-7.1,9.6l-109.2,40.3,23.4,135.9c1.4,8.4-3.5,15.1-11,15-4.9,0-9.7-3-12.9-7.4l-69.3-85,6.2-33.3,51.7,63.6-17.2-99.6c-1.3-6.6,1.3-12.8,6.9-14.8l80.4-29.7-90.3-31.5c-6.1-1.8-11.3-7.8-12.5-14.8l-16.9-100-38.9,80.4c-2.5,5.1-8.2,7.5-14.3,5.3l-90.9-32.1,54.4,66.4h-33.3l-71.4-87c-5.6-6.8-5.9-16.3-.6-21.1,3.4-3.1,8.3-3.6,12.8-1.6l122.5,43.3,52.9-109.2c3.2-6.7,11.5-8.1,18.4-3.2,4.2,3,7,7.7,7.8,12.4h0Z"/>
      </g>
      <g>
        <path class="st0" d="M1263,521.4c-6.7,0-12.4-2.7-16.7-7.8-4.3-5.1-5.9-11.3-4.6-17.9l16.8-90.7-384,323.6,58.8-316.4h91.9l30.9-166.2h-368.6l-7.8,41.8-23.1,124.4h74.3l-87.4,470.4-18.5,99.7h157.3l544.9-460.9h-64.2Z"/>
        <g>
          <path class="st2" d="M1272.6,522.3c-9.8-7.4-21.3-15.5-25.9-27.6-4.1-9.7-5.3-22.5-7.5-30.8-.8-3.1-1.8-6.3-3.7-8.7-2.7-3.4-6.5-1.8-9.1,1.4-5.3,5.6-9.6,20.5-7.5,30.7,1.8,14.6,14.6,26.2,26,33.1,2.9,1.8,5.9,3.6,8.6,5.4,2.6,1.7,5.4,3.5,6.6,6.3,1.6,4-4.4,9-7.9,12-90.1,79.1-420.4,349.9-505.3,430.5,0,.7.2,1.3.7,1.8,1.8,1.5,7.2.8,14.7-2.2,11.8-4.8,23.2-12.7,33-21.2,17.3-14.6,38.4-32.5,57.9-49,129.1-109.3,286-241.9,409.6-346.6,5.1-4.3,11.5-9.9,14.9-14.4,6.4-8,3.8-13.8-5.2-20.6h.2-.1Z"/>
          <path class="st2" d="M907.5,394.7c-4.6,1.5-9.8,7.8-12.2,13.9-1.6,3.7-2.7,7.8-3.6,12-19.1,97.2-44.1,226.1-62.8,322.6-6.7,33.3,14.1,20.8,24.3.4,3.2-6.2,5.3-12.9,7-19.8,19.1-95.2,46.9-239.9,60.7-310.9.7-5.1,1.1-9.6-1.1-13.9-2.3-4.4-7-6.3-12-4.3h-.3Z"/>
          <path class="st2" d="M1002.5,396.7c15.1-7.1,18.5-29.7,22.1-44.7,3.3-15.6,6.7-31.5,10-47.1,1.5-7.1,3-14.5,3.4-21.6,1.7-24.9-15.8-30.1-27.4-8.3-4,7.7-6.1,16.6-8.1,25.2-4.2,19.4-8.8,39.9-12.7,59.7-1.8,9.4-3.6,21.7,0,30.1,2.5,6.2,7.4,8.7,12.7,6.7h0Z"/>
        </g>
      </g>
      <g>
        <path class="st0" d="M1660.3,816.2l22-119.3h30.1l-5.4,29.2h165.3l41.2-223.6h-165.3l-5.4,29.2h-30.1l22.1-120.2h129.1l-5.4,29.2h166.2l35.8-194.5h-248.9c.9,4.1,1.1,8.4.6,12.6-1.5,12.4-9.3,23-21.1,27.3l-92.3,34.1,20.4,118.1c3.6,21-10.9,40.6-32.7,40.4-11.9-.1-22.8-6.4-29.8-15.8l-53-64.9-73.7,396.7h48.1c6.7,0,12.4,2.7,16.7,7.8,4.3,5.1,5.9,11.3,4.7,17.9l-30.1,162.2h355.5l36-195.4h-166.2l-5.4,29.2h-129.1v-.2h.1Z"/>
        <g>
          <path class="st2" d="M1840,709.9c5.3,2.3,13.2,1.2,17.9-3.7,2.9-3,4-7.4,4.9-11.7,7.2-37.4,25.4-125.5,32.6-165.7,1.2-8.7-6.3-12.5-14.3-11-3.8.7-7.5,2.6-10,6-3.5,4.7-4.9,17.5-6.8,25.7-8.4,42.7-19.1,96.4-27.5,138.7-1.6,10.1-5.1,17.5,3.1,21.7h.1Z"/>
          <path class="st2" d="M2024.6,262.4c-10.1,4.3-10,14.6-12.6,26-3.9,19.4-7.8,38.7-12.2,60.8-3.8,18.8-6.9,34.4-10.1,50.5-1.6,9.1-3.6,14.7-1.8,19.9,2.5,6.3,10.8,7.4,17.4,4.5,5.4-2.2,8.7-8,9.9-14.1,7.1-35.3,21.1-102.5,27.2-136.2,1.8-11-8.7-15-17.6-11.3h-.2Z"/>
          <path class="st2" d="M1892.5,966.1c5.1,2.5,12.9,1.4,17.8-3.5,3.1-3,4.4-7.6,5.4-12.1,7-36.4,20.9-100.6,27.1-137.2.8-8.2-5.7-12.2-13.4-11.2-12.8,2.2-14,11.9-16.7,25.4-3,15-6.4,32-10.3,51.2-4.5,22.4-8.4,42-12.3,61.5-1.8,11.4-6.4,20.9,2.2,25.7h0l.2.2h0Z"/>
        </g>
      </g>
    </g>
    <g>
      <path class="st1" d="M4892.7,256.8l-36.9,233.2h-144.6l12.2-76.6c.5-2.9-.4-5.8-2.3-8.1-1.9-2.2-4.7-3.5-7.6-3.5h-52.9c-4.9,0-9.1,3.6-9.9,8.4l-64,404c-.5,2.9.4,5.8,2.3,8.1,1.9,2.2,4.7,3.5,7.6,3.5h50l-23.1,145.8h-305.2l23.1-145.8h53.2c4.9,0,9.1-3.6,9.9-8.4l64-404c.5-2.9-.4-5.8-2.3-8.1-1.9-2.2-4.7-3.5-7.6-3.5h-52.9c-4.9,0-9.1,3.6-9.9,8.4l-12.7,79.8h-145.6l36.9-233.2h618.4M4904.4,246.8h-638.6l-40.1,253.2h165.8l14-88.2h52.9l-64,404h-61.7l-26.3,165.8h325.5l26.3-165.8h-61.7l64-404h52.9l-14,88.2h164.9l40.1-253.2h0ZM4658.2,815.8h0,0Z"/>
      <path class="st1" d="M4231.5,258.9l-41.9,264.2c0,.5-.1,1-.1,1.6h0c0,5.6,4.5,10.1,10,10.1h110.3l-69.5,438.9h-176.9l-146.2-374.6c-1.5-3.9-5.2-6.4-9.3-6.4s-.7,0-1.1,0c-4.5.5-8.1,3.9-8.8,8.4l-34.1,215.2c-.5,2.9.4,5.8,2.3,8.1,1.9,2.2,4.7,3.5,7.6,3.5h45.6l-23.1,145.8h-292l23-145.8h48.8c4.9,0,9.1-3.6,9.9-8.4l64-404c.5-2.9-.4-5.8-2.3-8.1-1.9-2.2-4.7-3.5-7.6-3.5h-45.6l22.9-145h234.2l146.3,373.8c1.5,3.9,5.2,6.4,9.3,6.4s.7,0,1.1,0c4.5-.5,8.1-3.9,8.8-8.4l34.1-215.2c.5-2.9-.4-5.8-2.3-8.1-1.9-2.2-4.7-3.5-7.6-3.5h-43.9l22.9-145h111.1M4243.2,248.9h0,0ZM4243.2,248.9h-131.4l-26.1,165h55.6l-34.1,215.2-148.8-380.2h-249.6l-26.1,165h57.3l-64,404h-57.3l-26.2,165.8h312.2l26.3-165.8h-57.3l34.1-215.2,148.7,381h192.3l72.7-458.9h-122c0,0,43.7-275.9,43.7-275.9h0Z"/>
      <path class="st1" d="M3670.4,258.9l-22.9,144.9h-48.8c-4.9,0-9.1,3.6-9.9,8.4l-64,404c-.5,2.9.4,5.8,2.3,8.1,1.9,2.2,4.7,3.5,7.6,3.5h45.6l-23.1,145.8h-296.4l23.1-145.8h48.8c4.9,0,9.1-3.6,9.9-8.4l64-404c.5-2.9-.4-5.8-2.3-8.1-1.9-2.2-4.7-3.5-7.6-3.5h-45.6l22.9-144.9h296.5M3682.1,248.9h-316.7l-26.1,164.9h57.3l-64,404h-57.3l-26.3,165.8h316.7l26.3-165.8h-57.3l64-404h57.3l26.1-164.9h0ZM3592,817.8h0,0Z"/>
      <path class="st1" d="M3217.6,256.8l92.8,110.3-29.6,186.8-65.6,56.7c-4.1,3.6-4.6,9.7-1.2,13.9l46.7,56.5-21.1,133.1-25,157.4h-181.8l37-233.6c.5-2.9-.4-5.8-2.2-8l-20-23.8c-1.9-2.3-4.7-3.6-7.7-3.6h-100.6c-4.9,0-9.1,3.6-9.9,8.4l-16.3,103.2c-.5,2.9.4,5.8,2.3,8.1,1.9,2.2,4.7,3.5,7.6,3.5h45.6l-23,145.8h-296.5l23-145.8h48.8c4.9,0,9.1-3.6,9.9-8.4l64-404c.5-2.9-.4-5.8-2.3-8.1-1.9-2.2-4.7-3.5-7.6-3.5h-45.6l22.9-145h455.2M2965.5,557.6h100.6c2.4,0,4.7-.9,6.5-2.4l27.6-23.8c2.2-1.9,3.4-4.6,3.5-7.4l13.8-86.8c.5-2.9-.4-5.8-2.2-8l-20-23.8c-1.9-2.3-4.7-3.6-7.7-3.6h-100.6c-4.9,0-9.1,3.6-9.9,8.4l-21.5,135.8c-.5,2.9.4,5.8,2.3,8.1,1.9,2.2,4.7,3.5,7.6,3.5M3222.3,246.8h-468.4l-26.1,165h57.3l-64,404h-57.3l-26.2,165.8h316.7l26.2-165.8h-57.3l16.3-103.2h100.6l20,23.8-38.8,245.2h202l26.3-165.8,21.8-137.6-49.6-60,68.4-59.1,30.9-195h0s-98.7-117.3-98.7-117.3h0ZM2965.5,547.6l21.5-135.8h100.6l20,23.8-14,88.2h.1l-27.6,23.8h-100.6Z"/>
      <path class="st1" d="M2669.5,256.8l42.1,50-20,126c-.5,2.9.4,5.8,2.3,8.1,1.9,2.2,4.7,3.5,7.6,3.5h45.6l-25.6,161.8-126.9,109.6h-205.4c-4.9,0-9.1,3.6-9.9,8.4l-14.2,90c-.5,2.9.4,5.8,2.3,8.1s4.7,3.5,7.6,3.5h45.6l-23,145.8h-296.4l23.1-145.8h48.8c4.9,0,9.1-3.6,9.9-8.4l64-404c.5-2.9-.4-5.8-2.3-8.1-1.9-2.2-4.7-3.5-7.6-3.5h-45.6l22.9-145h455.2M2415.3,570.8h100.6c2.4,0,4.7-.9,6.5-2.4l27.6-23.8c2.2-1.9,3.5-4.6,3.5-7.5l15.9-100c.5-2.9-.4-5.8-2.2-8l-20-23.8c-1.9-2.3-4.7-3.6-7.7-3.6h-100.6c-4.9,0-9.1,3.6-9.9,8.4l-23.6,149.1c-.5,2.9.4,5.8,2.3,8.1,1.9,2.2,4.7,3.5,7.6,3.5M2674.2,246.8h-468.4l-26.1,165h57.3l-64,404h-57.3l-26.3,165.8h316.7l26.2-165.8h-57.3l14.2-90h209.1l132.5-114.4,28-177h-57.3,0l20.7-130.5-48-57.1h0ZM2415.3,560.8l23.6-149.1h100.6l20,23.8-16.1,101.4h.1c0,0-27.6,23.9-27.6,23.9h-100.6Z"/>
      <path class="st1" d="M639.8,256.1l11.1,13.1-25.5,137.3c-1.7,9.5.7,18.7,6.9,26.1,5.9,7,13.7,10.9,22.7,11.3.5,0,1.1.1,1.7.1h36.1l-82.5,444.2-99.9,84.3H199.2l-93-110.5,11.9-74.8,66.2-418.3,130.6-112.8h324.9M329.7,826.2h116.7c2.4,0,4.7-.9,6.5-2.4l25.8-22.3c2.2-1.5,3.8-3.9,4.2-6.7l55.6-350.7s0,0,0,0l1.1-7.3c.4-2.8-.3-5.6-2.1-7.8l-19.2-23.9c-1.9-2.4-4.8-3.7-7.8-3.7h-116.7c-2.4,0-4.7.9-6.5,2.4l-27.6,23.9c-1.8,1.5-3,3.7-3.3,6l-55.6,350.6-1.2,7.4c-.5,2.9.4,6,2.4,8.2l20.2,23c1.9,2.2,4.6,3.4,7.5,3.4M644.5,246.1h-333.3l-136.2,117.6-66.8,421.9-12.6,79.3,98.9,117.6h319.4l105.4-89,85.4-459.5h-48.1c-6.7-.1-12.4-2.8-16.7-7.9-4.3-5.1-5.9-11.3-4.7-17.8l26.4-141.9-17.1-20.3h0ZM329.7,816.2l-20.2-23,1.2-7.4,55.6-350.6,27.6-23.9h116.7l19.2,23.9-1.1,7.3-55.6,350.7h-.1l-26.6,23h-116.7Z"/>
      <path class="st1" d="M1044.1,256l-27.2,146.2h-83.6c-4.8,0-9,3.4-9.8,8.2l-58.8,316.4c-.8,4.2,1.1,8.3,4.8,10.5,1.6.9,3.3,1.4,5,1.4s4.6-.8,6.4-2.4l362.6-305.6-11.7,63.2c-1.9,9.5.5,18.8,6.8,26.2,6.3,7.4,14.7,11.4,24.3,11.4h36.9l-521.3,440.9h-141.6l16.3-87.9,87.4-470.4c.5-2.9-.2-5.9-2.1-8.2-1.9-2.3-4.7-3.6-7.7-3.6h-62.3l20.9-112.6,6.3-33.6h348.3M1056.1,246h-368.6l-7.8,41.8-23.1,124.4h74.3l-87.4,470.4-18.5,99.7h157.3l544.9-460.9h-64.2c-6.7,0-12.4-2.7-16.7-7.8-4.3-5.1-5.9-11.3-4.6-17.9l16.8-90.7-384,323.6,58.8-316.4h91.9l30.9-166.2h0ZM1258.5,405h0,0Z"/>
      <path class="st1" d="M2048.5,256.2l-32.1,174.5h-145.9l3.2-17.4c.5-2.9-.2-5.9-2.1-8.2-1.9-2.3-4.7-3.6-7.7-3.6h-129.1c-4.8,0-9,3.4-9.8,8.2l-.3,1.6-14.6-84.6,84.5-31.2c15-5.5,25.6-19.1,27.6-35.5.2-1.3.3-2.5.3-3.8h226.1M1609.6,421l39.2,48c9.2,12.2,23.2,19.5,37.6,19.6h.4c9.3,0,17.9-2.8,25.1-8l-9,49.2c-.5,2.9.3,5.9,2.2,8.2,1.9,2.3,4.7,3.6,7.7,3.6h30.1c4.8,0,9-3.4,9.8-8.2l3.9-21h145l-37.5,203.6h-145l3.2-17.4c.5-2.9-.2-5.9-2.1-8.2-1.9-2.3-4.7-3.6-7.7-3.6h-30.1c-4.8,0-9,3.4-9.8,8.2l-21.7,117.9c-.3,1-.5,2.1-.5,3.2v.2c0,5.5,4.5,10,10,10h129.1c4.8,0,9-3.4,9.8-8.2l3.9-21h145.9l-32.3,175.4h-335.1l27.9-150.4c1.7-9.5-.7-18.8-6.9-26.1-6.3-7.4-14.7-11.4-24.3-11.4h-36.1l67.6-363.7M2060.5,246.2h-248.9c.9,4.1,1.1,8.4.6,12.6-1.5,12.4-9.3,23-21.1,27.3l-92.3,34.1,20.4,118.1c3.6,20.9-10.8,40.4-32.4,40.4s-.2,0-.3,0c-11.9,0-22.8-6.4-29.8-15.8l-53-64.9-73.7,396.7h48.1c6.7,0,12.4,2.7,16.7,7.8,4.3,5.1,5.9,11.3,4.7,17.9l-30.1,162.2h355.5l36-195.4h-166.2l-5.4,29.2h-129.1v-.2h.1l22-119.3h30.1l-5.4,29.2h165.3l41.2-223.6h-165.3l-5.4,29.2h-30.1l22.1-120.2h129.1l-5.4,29.2h166.2l35.8-194.5h0Z"/>
    </g>
  </g>
  <path class="st0" d="M1593.7,254.6l-103.9,559.6c-.5,2.6.2,5.3,1.9,7.4,1.7,2.1,4.2,3.2,6.9,3.2h63.4l-27.6,148.1h-350.3l27.6-148.1h84.4c4.3,0,8.1-3.1,8.8-7.4l58.8-316.5c.5-2.6-.2-5.3-1.9-7.4-1.7-2.1-4.2-3.2-6.9-3.2h-81.1l19.1-102.9,157.5-132.8h143.2M1604.5,245.6h0,0ZM1604.5,245.6h-157.3l-162.5,137-21.7,116.7h91.9l-58.8,316.5h-91.9l-30.9,166.1h368.6l30.9-166.1h-74.2l105.9-570.2h0Z"/>
  <g>
    <path d="M1604.5,245.6l-105.9,570.2h74.2l-30.9,166.1h-368.6l30.9-166.1h91.9l58.8-316.5h-91.9l21.7-116.7,162.5-137h157.3M1572.8,815.8h0M1604.5,240.6h-157.3c-1.2,0-2.3.4-3.2,1.2l-162.5,137c-.9.7-1.5,1.8-1.7,2.9l-21.7,116.7c-.3,1.5.1,3,1.1,4.1.9,1.1,2.4,1.8,3.8,1.8h85.9l-56.9,306.5h-87.7c-2.4,0-4.5,1.7-4.9,4.1l-30.9,166.1c-.3,1.5.1,3,1.1,4.1.9,1.1,2.4,1.8,3.8,1.8h368.6c2.4,0,4.5-1.7,4.9-4.1l30.9-165.9c0-.4.1-.7.1-1.1,0-2.8-2.2-5-5-5h-68.2l104.8-564.3c.3-1.5-.1-3-1.1-4.1-.9-1.1-2.4-1.8-3.8-1.8h0ZM1604.5,250.6h0,0Z"/>
    <path d="M1615.9,42.5c2.8,0,5.8,1,8.6,2.9,4.2,3,7,7.7,7.8,12.4h0c0,0,23,135.9,23,135.9l123.5,43.1c7.6,2.7,12.9,11.2,12,19.1-.6,4.8-3.3,8.2-7.1,9.6l-109.2,40.3,23.4,135.9c1.4,8.3-3.4,15-10.8,15s-.1,0-.2,0c-4.9,0-9.7-3-12.9-7.4l-69.3-85,6.2-33.3,51.7,63.6-17.2-99.6c-1.3-6.6,1.3-12.8,6.9-14.8l80.4-29.7-90.3-31.5c-6.1-1.8-11.3-7.8-12.5-14.8l-16.9-100-38.9,80.4c-1.9,3.8-5.5,6.1-9.8,6.1s-3-.3-4.5-.8l-90.9-32.1,54.4,66.4h-33.3l-71.4-87c-5.6-6.8-5.9-16.3-.6-21.1,2.1-1.9,4.6-2.8,7.4-2.8s3.6.4,5.4,1.2l122.5,43.3,52.9-109.2c1.9-4,5.7-6.1,9.8-6.1M1615.9,37.5v5s0-5,0-5c-6.3,0-11.7,3.4-14.3,9l-50.9,105.2-118.1-41.7c-2.4-1-4.8-1.5-7.3-1.5-4,0-7.8,1.5-10.7,4.1-7.2,6.6-7.2,19.1.1,28l71.4,87c.9,1.2,2.4,1.8,3.9,1.8h33.3c1.9,0,3.7-1.1,4.5-2.9.8-1.7.6-3.8-.7-5.3l-43.1-52.6,74,26.1c2,.7,4.1,1.1,6.2,1.1,6.2,0,11.6-3.3,14.3-8.9l32.1-66.3,14.3,84.6c1.5,8.8,7.9,16.3,15.9,18.7l77,26.9-67.3,24.9c-7.8,2.8-11.9,11.2-10.1,20.4l13.9,80.7-39.6-48.8c-1-1.2-2.4-1.8-3.9-1.8s-.8,0-1.2.2c-1.9.5-3.3,2-3.7,3.9l-6.2,33.3c-.3,1.4.1,2.9,1,4.1l69.2,84.9c4.3,5.9,10.6,9.3,16.9,9.3h.2c4.8,0,9-1.9,12-5.5,3.4-4,4.7-9.6,3.8-15.3l-22.7-131.8,105.3-38.9c5.7-2.1,9.5-7.2,10.3-13.7,0,0,0,0,0,0,1.2-10.2-5.6-20.9-15.3-24.4l-120.7-42.1-22.3-131.9c0-.4,0-.7,0-1.1-1-6.1-4.7-12-9.8-15.6-3.6-2.5-7.5-3.9-11.5-3.9h0Z"/>
    <path d="M4904.4,246.8h0M4904.4,246.8l-40.1,253.2h-164.9l14-88.2h-52.9l-64,404h61.7l-26.3,165.8h-325.5l26.3-165.8h61.7l64-404h-52.9l-14,88.2h-165.8l40.1-253.2h638.6M4904.4,241.8h-638.6c-2.5,0-4.6,1.8-4.9,4.2l-40.1,253.2c-.2,1.4.2,2.9,1.1,4,1,1.1,2.3,1.8,3.8,1.8h165.8c2.5,0,4.6-1.8,4.9-4.2l13.3-84h42.8l-62.4,394h-57.4c-2.5,0-4.6,1.8-4.9,4.2l-26.3,165.8c-.2,1.4.2,2.9,1.1,4,1,1.1,2.3,1.8,3.8,1.8h325.5c2.5,0,4.6-1.8,4.9-4.2l26.3-165.8c.2-1.4-.2-2.9-1.1-4-.9-1.1-2.3-1.8-3.8-1.8h-55.8l62.4-394h42.8l-13.1,82.4c-.2,1.4.2,2.9,1.1,4,1,1.1,2.3,1.8,3.8,1.8h164.9c2.5,0,4.6-1.8,4.9-4.2l40.1-253c0-.3,0-.6,0-1,0-2.8-2.2-5-5-5h0ZM4904.4,251.8h0,0Z"/>
    <path d="M4243.2,248.9l-43.7,275.8h0c0,0,122,0,122,0l-72.7,458.9h-192.3l-148.7-381-34.1,215.2h57.3l-26.3,165.8h-312.2l26.2-165.8h57.3l64-404h-57.3l26.1-165h249.6l148.8,380.2,34.1-215.2h-55.6l26.1-165h131.4M4321.5,524.8h0M4243.2,243.9h-131.4c-2.5,0-4.6,1.8-4.9,4.2l-26.1,165c-.2,1.4.2,2.9,1.1,4,.9,1.1,2.3,1.8,3.8,1.8h49.7l-30.3,191.2-142.1-363c-.8-1.9-2.6-3.2-4.7-3.2h-249.6c-2.5,0-4.6,1.8-4.9,4.2l-26.1,165c-.2,1.4.2,2.9,1.1,4,.9,1.1,2.3,1.8,3.8,1.8h51.4l-62.4,394h-53c-2.5,0-4.6,1.8-4.9,4.2l-26.2,165.8c-.2,1.4.2,2.9,1.1,4,.9,1.1,2.3,1.8,3.8,1.8h312.2c2.5,0,4.6-1.8,4.9-4.2l26.3-165.8c.2-1.4-.2-2.9-1.1-4-.9-1.1-2.3-1.8-3.8-1.8h-51.4l30.3-191.2,142,363.8c.7,1.9,2.6,3.2,4.7,3.2h192.3c2.5,0,4.6-1.8,4.9-4.2l72.7-458.7c0-.3,0-.6,0-1,0-2.8-2.2-5-5-5h-116.2l42.8-270.1c.2-1.4-.2-2.9-1.1-4-1-1.1-2.3-1.8-3.8-1.8h0ZM4243.2,253.9h0,0Z"/>
    <path d="M3682.1,248.9h0M3682.1,248.9l-26.1,164.9h-57.3l-64,404h57.3l-26.3,165.8h-316.7l26.3-165.8h57.3l64-404h-57.3l26.1-164.9h316.7M3682.1,243.9h-316.7c-2.5,0-4.6,1.8-4.9,4.2l-26.1,164.9c-.2,1.4.2,2.9,1.1,4,1,1.1,2.3,1.8,3.8,1.8h51.4l-62.4,394h-53c-2.5,0-4.6,1.8-4.9,4.2l-26.3,165.8c-.2,1.4.2,2.9,1.1,4,1,1.1,2.3,1.8,3.8,1.8h316.7c2.5,0,4.6-1.8,4.9-4.2l26.3-165.8c.2-1.4-.2-2.9-1.1-4s-2.3-1.8-3.8-1.8h-51.4l62.4-394h53c2.5,0,4.6-1.8,4.9-4.2l26.1-164.7c0-.3,0-.6,0-1,0-2.8-2.2-5-5-5h0ZM3682.1,253.9h0,0Z"/>
    <path d="M3222.3,246.8l98.7,117.3h0s-30.9,195-30.9,195l-68.4,59.1,49.6,60-21.8,137.6-26.3,165.8h-202l38.8-245.2-20-23.8h-100.6l-16.3,103.2h57.3l-26.2,165.8h-316.7l26.2-165.8h57.3l64-404h-57.3l26.1-165h468.4M2965.5,547.6h100.6l27.6-23.8h-.1l14-88.2-20-23.8h-100.6l-21.5,135.8M3222.3,241.8h-468.4c-2.5,0-4.6,1.8-4.9,4.2l-26.1,165c-.2,1.4.2,2.9,1.1,4,.9,1.1,2.3,1.8,3.8,1.8h51.4l-62.4,394h-53c-2.5,0-4.6,1.8-4.9,4.2l-26.2,165.8c-.2,1.4.2,2.9,1.1,4,.9,1.1,2.3,1.8,3.8,1.8h316.7c2.5,0,4.6-1.8,4.9-4.2l26.2-165.8c.2-1.4-.2-2.9-1.1-4-.9-1.1-2.3-1.8-3.8-1.8h-51.4l14.7-93.2h94l17,20.3-38.4,242.9c-.2,1.4.2,2.9,1.1,4,.9,1.1,2.3,1.8,3.8,1.8h202c2.5,0,4.6-1.8,4.9-4.2l26.3-165.8,21.8-137.6c.2-1.4-.2-2.9-1.1-4l-46.5-56.2,64.7-55.9c.9-.8,1.5-1.8,1.7-3l30.9-195c.2-1.4-.2-2.9-1.1-4-.2-.2-.4-.4-.6-.6l-98.2-116.7c-1-1.1-2.4-1.8-3.8-1.8h0ZM2991.3,416.8h94l17,20.3-13.4,84.2-24.7,21.3h-92.9l19.9-125.8h0Z"/>
    <path d="M2674.2,246.8l48,57.1-20.7,130.5h57.3l-28,177-132.5,114.4h-209.1l-14.2,90h57.3l-26.2,165.8h-316.7l26.3-165.8h57.3l64-404h-57.3l26.1-165h468.4M2415.3,560.8h100.6l27.6-23.8h0c0,0-.1,0-.1,0l16.1-101.4-20-23.8h-100.6l-23.6,149.1M2758.8,434.4h0M2674.2,241.8h-468.4c-2.5,0-4.6,1.8-4.9,4.2l-26.1,165c-.2,1.4.2,2.9,1.1,4,.9,1.1,2.3,1.8,3.8,1.8h51.4l-62.4,394h-53c-2.5,0-4.6,1.8-4.9,4.2l-26.3,165.8c-.2,1.4.2,2.9,1.1,4s2.3,1.8,3.8,1.8h316.7c2.5,0,4.6-1.8,4.9-4.2l26.2-165.8c.2-1.4-.2-2.9-1.1-4-.9-1.1-2.3-1.8-3.8-1.8h-51.4l12.6-80h204.8c1.2,0,2.4-.4,3.3-1.2l132.5-114.4c.9-.8,1.5-1.8,1.7-3l28-176.8c0-.3,0-.6,0-1,0-2.8-2.2-5-5-5h-51.4l19.8-124.7c.2-1.4-.2-2.9-1.1-4l-48-57.1c-.9-1.1-2.4-1.8-3.8-1.8h0ZM2443.2,416.7h94l17,20.3-15.5,97.6-24.7,21.3h-92.9l22-139.1h0Z"/>
    <path d="M644.5,246.1l17.1,20.3-26.4,141.9c-1.2,6.5.4,12.7,4.7,17.8,4.3,5.1,10,7.8,16.7,7.8h0c0,.1,48.1.1,48.1.1l-85.4,459.5-105.4,89H194.5l-98.9-117.6,12.6-79.3,66.8-421.9,136.2-117.6h333.3M329.7,816.2h116.7l26.6-23h.1l55.6-350.7,1.1-7.3-19.2-23.9h-116.7l-27.6,23.9-55.6,350.6-1.2,7.4,20.2,23M704.7,434h0M644.5,241.1h-333.3c-1.2,0-2.4.4-3.3,1.2l-136.2,117.6c-.9.8-1.5,1.8-1.7,3l-66.8,421.9-12.6,79.3c-.2,1.4.2,2.9,1.1,4l98.9,117.6c.9,1.1,2.4,1.8,3.8,1.8h319.4c1.2,0,2.3-.4,3.2-1.2l105.4-89c.9-.7,1.5-1.8,1.7-2.9l85.4-459.3c0-.4.1-.7.1-1.1,0-2.8-2.2-5-5-5h-47.1c-.3,0-.7-.1-1-.1-5.2,0-9.5-2-12.9-6-3.3-3.9-4.5-8.6-3.6-13.7l26.4-141.9c.3-1.5-.1-3-1.1-4.1l-17.1-20.3c-1-1.1-2.3-1.8-3.8-1.8h0ZM395.8,416.3h112.4l16.3,20.3-.8,5.1-55.3,348.8-23.9,20.7h-112.6l-17.2-19.5.8-5.1,55.3-348.8,24.8-21.5h0Z"/>
    <path d="M1056.1,246l-30.9,166.2h-91.9l-58.8,316.4,384-323.6-14.9,80.2c.8,3.3,1.8,6.6,3.1,9.5,4.4,11.6,15.2,19.5,24.7,26.7h55.8l-544.9,460.9h-157.3l18.5-99.7,87.4-470.4h-74.3l23.1-124.4,7.8-41.8h368.6M1327.2,521.4h0M1056.1,241h-368.6c-2.4,0-4.5,1.7-4.9,4.1l-7.8,41.8-23.1,124.4c-.3,1.5.1,3,1.1,4.1,1,1.1,2.4,1.8,3.8,1.8h68.3l-86.3,464.5-18.5,99.7c-.3,1.5.1,3,1.1,4.1,1,1.1,2.4,1.8,3.8,1.8h157.3c1.2,0,2.3-.4,3.2-1.2l544.8-460.8c1.1-.9,1.8-2.3,1.8-3.9,0-2.8-2.2-5-5-5h-54.1c-8.9-6.7-18-13.7-21.7-23.5,0,0,0-.1,0-.2-.9-2.2-1.8-4.7-2.5-7.7l14.7-79.1c.4-2.1-.6-4.2-2.4-5.2-.8-.5-1.6-.7-2.5-.7-1.2,0-2.3.4-3.2,1.2l-373.3,314.6,55.5-298.6h87.7c2.4,0,4.5-1.7,4.9-4.1l30.9-166.2c.3-1.5-.1-3-1.1-4.1-.9-1.1-2.4-1.8-3.8-1.8h0ZM1056.1,251h0,0Z"/>
    <path d="M2060.5,246.2h0M2060.5,246.2l-35.8,194.5h-166.2l5.4-29.2h-129.1l-22.1,120.2h30.1l5.4-29.2h165.3l-41.2,223.6h-165.3l5.4-29.2h-30.1l-22,119.3h-.1v.2h129.1l5.4-29.2h166.2l-36,195.4h-355.5l30.1-162.2c1.2-6.6-.4-12.8-4.7-17.9-4.3-5.1-10-7.8-16.7-7.8h-48.1l73.7-396.7,53,64.9c7,9.4,17.9,15.7,29.8,15.8.1,0,.2,0,.3,0,21.6,0,36-19.5,32.4-40.4l-20.4-118.1,92.3-34.1c11.8-4.3,19.6-14.9,21.1-27.3.5-4.2.3-8.5-.6-12.6h248.9M2060.5,241.2h-248.9c-1.5,0-2.9.7-3.9,1.9-.9,1.2-1.3,2.7-1,4.2.8,3.5,1,7.3.5,10.9-1.3,10.8-8.1,19.7-17.8,23.2l-92.3,34.1c-2.3.8-3.6,3.2-3.2,5.5l20.4,118.1c1.6,9.1-.8,18.2-6.4,24.9-5.2,6.2-12.7,9.6-21,9.6h-.3c-9.8,0-19.5-5.2-25.8-13.8,0,0,0-.1-.1-.2l-53-64.9c-1-1.2-2.4-1.8-3.9-1.8-.4,0-.8,0-1.2.2-1.9.5-3.3,2-3.7,3.9l-73.7,396.7c-.3,1.5.1,3,1.1,4.1.9,1.1,2.4,1.8,3.8,1.8h48.1c5.2,0,9.5,2,12.9,6,3.3,4,4.5,8.6,3.6,13.8l-30.1,162.2c-.3,1.5.1,3,1.1,4.1s2.4,1.8,3.8,1.8h355.5c2.4,0,4.5-1.7,4.9-4.1l36-195.4c.3-1.5-.1-3-1.1-4.1-.9-1.1-2.4-1.8-3.8-1.8h-166.2c-2.4,0-4.5,1.7-4.9,4.1l-4.6,25.1h-118.9l20.2-109.5h19.9l-4.3,23.3c-.3,1.5.1,3,1.1,4.1.9,1.1,2.4,1.8,3.8,1.8h165.3c2.4,0,4.5-1.7,4.9-4.1l41.2-223.6c.3-1.5-.1-3-1.1-4.1s-2.4-1.8-3.8-1.8h-165.3c-2.4,0-4.5,1.7-4.9,4.1l-4.6,25.1h-19.9l20.3-110.2h118.9l-4.3,23.3c-.3,1.5.1,3,1.1,4.1.9,1.1,2.4,1.8,3.8,1.8h166.2c2.4,0,4.5-1.7,4.9-4.1l35.8-194.3c0-.3.1-.7.1-1.1,0-2.8-2.2-5-5-5h0ZM2060.5,251.2h0,0Z"/>
  </g>
</svg>