<?xml version="1.0" encoding="UTF-8"?>
<svg id="Layer_2" data-name="Layer 2" xmlns="http://www.w3.org/2000/svg" viewBox="0 0 241.78 352.5">
  <defs>
    <style>
      .cls-1 {
        fill: #00163f;
      }

      .cls-2 {
        fill: #080809;
      }

      .cls-3 {
        fill: #185ccb;
      }

      .cls-4 {
        fill: #032e82;
      }

      .cls-5 {
        fill: #f6b93a;
      }

      .cls-6 {
        fill: #f6f7f9;
      }
    </style>
  </defs>
  <g id="Layer_1-2" data-name="Layer 1">
    <g>
      <path class="cls-2" d="M114.48,70.07c-2.94-3.38-6.07-6.6-8.96-10.03-5.81-6.9-16.79-18.75-21.02-25.94-3.15-5.35-1.47-10.5,5.3-9.44l41.88,14.28L149.13,2.87c1.4-2.38,3.73-3.48,6.39-2.53l30.68,30.14,5.99,29.91c1.19,1.41,14.38,4.86,17.27,6.21,3.76,1.75,27.01,24.57,30.02,28.67,3.44,4.69,3.25,8.49-2.08,11.03-10.74,5.12-24.1,8-35.12,12.87-.34.95-.07,1.94,0,2.91,1.04,13.63,6.75,29.41,7.5,42.94.38,6.73-5.07,8.41-10.01,4.46l-30.04-30.38-24.21,131.57.69,2.07,20.64,20.81-11.26,58.23-2.05.71H29.84s-2.76-.69-2.76-.69L0,323.96l10.93-57.42c.52-1.04,1.34-1.01,2.33-1.12,4.18-.48,28.2.91,29.32-.03l14.64-78.99-.72-2.1-25.49-25.66,8.23-41.92,55.55-46.65h19.68ZM166.44,54.03c-1.64-1.67-6.56-39.92-8.08-46.12-.9-3.69-1.58-6.01-6.12-5.41l-19.17,39.21-43.98-15.01c-4.21-.68-4.49,4.11-2.54,6.76l23.4,28.39,8.68.64c.53-.46-2.28-3.82-2.78-4.47-3.49-4.5-10.69-11.34-13.12-15.88-.45-.83-.94-1.31-.67-2.43,5.42.56,31.86,12.57,35.03,11.29,2.19-.88,11.76-25.51,14.67-28.92l1.77.35c2.43,10.31,2.93,21.71,5.37,31.92,1.07,4.48,1.03,5.1,5.33,7.1s29.42,9.25,30.37,11.07c.59,1.13-2.51,1.9-3.27,2.24-3.44,1.51-25.37,8.63-26.09,9.82-1.87,4.8,6.49,37.16,5.19,38.67-1.38.17-2.29-1.17-3.11-2.06-5.07-5.48-9.33-11.92-14.14-17.63-1.33-.99-2.16,5.91-2.12,6.9s.29,1.87.83,2.69l24.26,28.91,2.21.54c1.89-.18,2.72-2.06,2.47-3.77l-8.29-47.99,37.76-13.71c4.72-2.45,1.58-7.63-2.57-8.76l-41.26-14.32ZM189.06,59.71l-4.78-28.01c-1.02-2.19-18.73-19.97-21.45-22.05-.69-.53-.88-1.34-2.07-1.03l7.22,43.52,21.08,7.57ZM140.03,51.43c-.88,1.21-3.43,2.15-4.99,1.95-7.57-.99-17.99-7.81-26.08-8.84l21.38,21.77c5.33,4.77,14.7,2.46,19.57,3.91,1.54.46,3.9,4.18,5.77,5.28,2.94,1.75,7.81,3.58,9.91.1.19-.31,1.91-4.4,1.96-4.66.74-3.74-8.4-8.63-9.92-12.59-3.17-8.26-2.97-22.14-5.17-31.08l-1.55.89-10.88,23.27ZM130.36,70.06c.45-.43-7.82-8.33-8.96-8.63l4.82,4.84,4.15,3.79ZM126.22,70.06c-3.52-5.42-6.77-6.24-13.12-5.51,3.52,5.42,6.77,6.24,13.12,5.51ZM189.06,72.15c-1.29-1.32-19.65-5.96-22.78-7.6l12.17,12.28c.68.13,8.47-2.66,9.63-3.25.53-.27,2.16-.23.98-1.43ZM148.32,72.14h-52.83l-54.23,45.9-7.58,39.03h31.08l-20.68,110.85-31.02.4-10.45,54.45h125l9.67-54.54h-24.86l35.91-196.08ZM175.94,78.35l-5.87-6.19c-2.65,3.49-3.12,8.54-8.63,8.61l2.41,2.3,12.09-4.73ZM114.48,266.15h25.21c.43,0,2.73,3.29,3.79,3.45l24.23-131.53-.41-3.1-18.68-22.76c-.15-.6,1.58-11.19,1.92-11.97.3-.68.66-1.38,1.57-1.18l14.84,14.16-5.2-28.62-11.35-11.08-35.92,192.63ZM213.93,77.67l-37.97,14.84,25.16,24.48c11-4.81,24.13-7.74,34.9-12.75,1.05-.49,3.22-1.18,3.47-2.41.27-1.34-.76-3.78-1.7-4.86l-22.82-22.75-1.03,3.45ZM182.16,143.26l-3.45,1.72,22.76,22.81c2.01,1.73,4.83,2.35,6.25-.37l-8.47-48.5-23.65-24,7.19,42.56-.63,5.77ZM62.68,159.14h-27.62l23.13,22.79,4.5-22.79ZM154.53,348.31l9.58-54.04-24.76-24.66-9.69,53.47,1.01,1.81,23.86,23.43ZM151.77,349.69l-23.83-24.17H4.67l23.83,24.17h123.27Z"/>
      <path class="cls-6" d="M148.32,72.14l-35.91,196.08h24.86l-9.67,54.54H2.6l10.45-54.45,31.02-.4,20.68-110.85h-31.08l7.58-39.03,54.23-45.9h52.83ZM136.58,76.97c-10.58-.25-26.94-1.2-36.96-.02-1.15.14-2.15.29-3.06,1.08l-50.76,43.15-5.9,31.04h31.08l-22.13,120.79-31.67.1-8.35,44.8c35.65-.54,71.4.73,107.04,0,1.87-.04,6.75.76,7.47-1.17l7.73-43.71c-1.84-.04-3.69.04-5.53,0-6.43-.15-12.91.11-19.34,0v-2.76s35.92-193.32,35.92-193.32c-1.83-.04-3.69.04-5.53,0Z"/>
      <polygon class="cls-1" points="151.77 349.69 28.5 349.69 4.67 325.53 127.95 325.53 151.77 349.69"/>
      <path class="cls-5" d="M166.44,54.03l41.26,14.32c4.15,1.12,7.29,6.3,2.57,8.76l-37.76,13.71,8.29,47.99c.25,1.71-.59,3.59-2.47,3.77l-2.21-.54-24.26-28.91c-.54-.82-.79-1.71-.83-2.69s.79-7.9,2.12-6.9c4.81,5.71,9.08,12.15,14.14,17.63.83.89,1.73,2.23,3.11,2.06,1.3-1.51-7.05-33.88-5.19-38.67.72-1.19,22.65-8.31,26.09-9.82.76-.34,3.86-1.11,3.27-2.24-.95-1.82-26.24-9.15-30.37-11.07s-4.26-2.62-5.33-7.1c-2.44-10.21-2.94-21.6-5.37-31.92l-1.77-.35c-2.91,3.42-12.47,28.04-14.67,28.92-3.17,1.28-29.61-10.74-35.03-11.29-.27,1.12.23,1.6.67,2.43,2.43,4.54,9.63,11.38,13.12,15.88.5.65,3.3,4.01,2.78,4.47l-8.68-.64-23.4-28.39c-1.95-2.65-1.67-7.43,2.54-6.76l43.98,15.01L152.24,2.5c4.55-.6,5.22,1.73,6.12,5.41,1.52,6.21,6.44,44.46,8.08,46.12Z"/>
      <polygon class="cls-4" points="154.53 348.31 130.67 324.88 129.66 323.07 139.35 269.61 164.11 294.27 154.53 348.31"/>
      <path class="cls-1" d="M239.48,101.83c-.25,1.23-2.42,1.92-3.47,2.41-10.77,5.01-23.89,7.94-34.9,12.75l-25.16-24.48,37.97-14.84,25.55,24.17Z"/>
      <polygon class="cls-4" points="207.71 167.42 182.16 143.26 182.79 137.49 175.6 94.93 199.25 118.93 207.71 167.42"/>
      <path class="cls-4" d="M189.06,59.71l-21.08-7.57-7.22-43.52c1.2-.31,1.38.5,2.07,1.03,2.72,2.08,20.43,19.86,21.45,22.05l4.78,28.01Z"/>
      <path class="cls-1" d="M140.03,51.43l25.55,24.17c-2.11,3.48-6.97,1.65-9.91-.1-1.86-1.11-4.23-4.82-5.77-5.28-4.87-1.45-14.24.87-19.57-3.91l-21.38-21.77c8.09,1.03,18.51,7.85,26.08,8.84,1.57.21,4.12-.74,4.99-1.95Z"/>
      <path class="cls-4" d="M140.03,51.43l10.88-23.27,1.55-.89c2.2,8.94,2,22.82,5.17,31.08,1.52,3.95,10.66,8.85,9.92,12.59-.05.26-1.78,4.35-1.96,4.66l-25.55-24.17Z"/>
      <polygon class="cls-1" points="62.68 159.14 58.19 181.93 35.06 159.14 62.68 159.14"/>
      <path class="cls-1" d="M182.16,143.26l25.55,24.17c-1.42,2.72-4.24,2.1-6.25.37l-22.76-22.81,3.45-1.72Z"/>
      <path class="cls-1" d="M189.06,72.15c1.18,1.2-.44,1.16-.98,1.43-1.16.59-8.95,3.38-9.63,3.25l-12.17-12.28c3.14,1.64,21.49,6.28,22.78,7.6Z"/>
      <path class="cls-4" d="M239.48,101.83l-25.55-24.17,1.03-3.45,22.82,22.75c.94,1.08,1.97,3.52,1.7,4.86Z"/>
      <path class="cls-1" d="M126.22,70.06c-6.35.73-9.6-.09-13.12-5.51,6.35-.73,9.6.09,13.12,5.51Z"/>
      <path class="cls-4" d="M130.36,70.06l-4.15-3.79-4.82-4.84c1.14.3,9.41,8.2,8.96,8.63Z"/>
      <path class="cls-4" d="M114.48,266.15l35.92-192.63,11.35,11.08,5.2,28.62-14.84-14.16c-.91-.2-1.27.5-1.57,1.18-.34.78-2.07,11.37-1.92,11.97l18.68,22.76.41,3.1-24.23,131.53c-1.06-.16-3.37-3.45-3.79-3.45h-25.21Z"/>
      <path class="cls-4" d="M136.58,76.97l-2.56,5.38c-11.66,62.33-24.92,124.48-35.46,186.94l.71,2.04c2.62,1.96,4.7.7,6.92-1.05v2.76c6.43.11,12.91-.16,19.34,0-3.45,4.27-4.06,9.25-5.31,14.37-1.58,6.43-4.41,17.1-4.96,23.34-.22,2.47-.23,4.81.6,7.17-35.64.73-71.39-.54-107.04,0l8.35-44.8,31.67-.1,22.13-120.79h-31.08l5.9-31.04,50.76-43.15c.91-.79,1.91-.94,3.06-1.08,10.02-1.18,26.38-.23,36.96.02Z"/>
      <path class="cls-3" d="M136.58,76.97c1.84.04,3.69-.04,5.53,0l-35.91,193.32c-2.22,1.75-4.31,3.01-6.92,1.05l-.71-2.04c10.55-62.46,23.8-124.62,35.46-186.94l2.56-5.38Z"/>
      <path class="cls-3" d="M125.53,273.06c1.84.04,3.69-.04,5.53,0l-7.73,43.71c-.72,1.92-5.6,1.13-7.47,1.17-.84-2.36-.82-4.7-.6-7.17.56-6.24,3.38-16.91,4.96-23.34,1.26-5.12,1.86-10.1,5.31-14.37Z"/>
    </g>
  </g>
</svg>