<?xml version="1.0" encoding="UTF-8"?>
<svg id="Modo_de_isolamento" xmlns="http://www.w3.org/2000/svg" version="1.1" viewBox="0 0 1288.02 113.68">
  <!-- Generator: Adobe Illustrator 29.6.0, SVG Export Plug-In . SVG Version: 2.1.1 Build 207)  -->
  <defs>
    <style>
      .st0 {
        fill: none;
        stroke: #253c81;
        stroke-miterlimit: 10;
        stroke-width: 2.21px;
      }

      .st1 {
        fill: #253c81;
      }
    </style>
  </defs>
  <path class="st0" d="M1195.85,76.23l1.57-8.45,11.77-9.93h11.4l-7.68,41.31h5.38l-2.24,12.04h-26.71l2.24-12.04h6.66l4.26-22.93h-6.66.01Z"/>
  <path class="st1" d="M1222.6,44.22l1.66,9.84,8.95,3.13c.55.19.94.81.87,1.39-.04.34-.24.59-.51.7l-7.91,2.92,1.7,9.84c.1.61-.25,1.09-.8,1.08-.36,0-.71-.22-.93-.54l-5.02-6.16.45-2.41,3.75,4.61-1.24-7.21c-.1-.48.1-.93.5-1.08l5.83-2.15-6.54-2.29c-.44-.13-.82-.56-.91-1.07l-1.22-7.25-2.82,5.83c-.18.37-.59.54-1.04.39l-6.59-2.33,3.94,4.81h-2.41l-5.17-6.3c-.4-.49-.42-1.18-.05-1.53.25-.23.6-.26.93-.12l8.87,3.14,3.83-7.91c.23-.49.83-.59,1.33-.23.3.22.5.56.56.9"/>
  <path class="st0" d="M1249.77,35.46l1.57-8.45,11.77-9.93h11.4l-7.68,41.31h5.38l-2.24,12.04h-26.71l2.24-12.04h6.66l4.26-22.93h-6.66.01Z"/>
  <path class="st1" d="M1276.53,3.45l1.66,9.84,8.95,3.13c.55.19.94.81.87,1.39-.04.34-.24.59-.51.7l-7.91,2.92,1.7,9.84c.1.61-.25,1.09-.8,1.08-.36,0-.71-.22-.93-.54l-5.02-6.16.45-2.41,3.75,4.61-1.24-7.21c-.1-.48.1-.93.5-1.08l5.83-2.15-6.54-2.29c-.44-.13-.82-.56-.91-1.07l-1.22-7.25-2.82,5.83c-.18.37-.59.54-1.04.39l-6.59-2.33,3.94,4.81h-2.41l-5.17-6.3c-.4-.49-.42-1.18-.05-1.53.25-.23.6-.26.93-.12l8.87,3.14,3.83-7.91c.23-.49.83-.59,1.33-.23.3.22.5.56.56.9"/>
  <path class="st0" d="M1195.85,76.23l1.57-8.45,11.77-9.93h11.4l-7.68,41.31h5.38l-2.24,12.04h-26.71l2.24-12.04h6.66l4.26-22.93h-6.66.01Z"/>
  <path class="st1" d="M1222.6,44.22l1.66,9.84,8.95,3.13c.55.19.94.81.87,1.39-.04.34-.24.59-.51.7l-7.91,2.92,1.7,9.84c.1.61-.25,1.09-.8,1.08-.36,0-.71-.22-.93-.54l-5.02-6.16.45-2.41,3.75,4.61-1.24-7.21c-.1-.48.1-.93.5-1.08l5.83-2.15-6.54-2.29c-.44-.13-.82-.56-.91-1.07l-1.22-7.25-2.82,5.83c-.18.37-.59.54-1.04.39l-6.59-2.33,3.94,4.81h-2.41l-5.17-6.3c-.4-.49-.42-1.18-.05-1.53.25-.23.6-.26.93-.12l8.87,3.14,3.83-7.91c.23-.49.83-.59,1.33-.23.3.22.5.56.56.9"/>
  <path class="st0" d="M1088,76.23l1.57-8.45,11.77-9.93h11.4l-7.68,41.31h5.38l-2.24,12.04h-26.71l2.24-12.04h6.66l4.26-22.93h-6.66.01Z"/>
  <path class="st1" d="M1114.75,44.22l1.66,9.84,8.95,3.13c.55.19.94.81.87,1.39-.04.34-.24.59-.51.7l-7.91,2.92,1.7,9.84c.1.61-.25,1.09-.8,1.08-.36,0-.71-.22-.93-.54l-5.02-6.16.45-2.41,3.75,4.61-1.24-7.21c-.1-.48.1-.93.5-1.08l5.83-2.15-6.54-2.29c-.44-.13-.82-.56-.91-1.07l-1.22-7.25-2.82,5.83c-.18.37-.59.54-1.04.39l-6.59-2.33,3.94,4.81h-2.41l-5.17-6.3c-.4-.49-.42-1.18-.05-1.53.25-.23.6-.26.93-.12l8.87,3.14,3.83-7.91c.23-.49.83-.59,1.33-.23.3.22.5.56.56.9"/>
  <path class="st0" d="M1141.92,35.46l1.57-8.45,11.77-9.93h11.4l-7.68,41.31h5.38l-2.24,12.04h-26.71l2.24-12.04h6.66l4.26-22.93h-6.66.01Z"/>
  <path class="st1" d="M1168.68,3.45l1.66,9.84,8.95,3.13c.55.19.94.81.87,1.39-.04.34-.24.59-.51.7l-7.91,2.92,1.7,9.84c.1.61-.25,1.09-.8,1.08-.36,0-.71-.22-.93-.54l-5.02-6.16.45-2.41,3.75,4.61-1.24-7.21c-.1-.48.1-.93.5-1.08l5.83-2.15-6.54-2.29c-.44-.13-.82-.56-.91-1.07l-1.22-7.25-2.82,5.83c-.18.37-.59.54-1.04.39l-6.59-2.33,3.94,4.81h-2.41l-5.17-6.3c-.4-.49-.42-1.18-.05-1.53.25-.23.6-.26.93-.12l8.87,3.14,3.83-7.91c.23-.49.83-.59,1.33-.23.3.22.5.56.56.9"/>
  <path class="st0" d="M1088,76.23l1.57-8.45,11.77-9.93h11.4l-7.68,41.31h5.38l-2.24,12.04h-26.71l2.24-12.04h6.66l4.26-22.93h-6.66.01Z"/>
  <path class="st1" d="M1114.75,44.22l1.66,9.84,8.95,3.13c.55.19.94.81.87,1.39-.04.34-.24.59-.51.7l-7.91,2.92,1.7,9.84c.1.61-.25,1.09-.8,1.08-.36,0-.71-.22-.93-.54l-5.02-6.16.45-2.41,3.75,4.61-1.24-7.21c-.1-.48.1-.93.5-1.08l5.83-2.15-6.54-2.29c-.44-.13-.82-.56-.91-1.07l-1.22-7.25-2.82,5.83c-.18.37-.59.54-1.04.39l-6.59-2.33,3.94,4.81h-2.41l-5.17-6.3c-.4-.49-.42-1.18-.05-1.53.25-.23.6-.26.93-.12l8.87,3.14,3.83-7.91c.23-.49.83-.59,1.33-.23.3.22.5.56.56.9"/>
  <path class="st0" d="M980.15,76.23l1.57-8.45,11.77-9.93h11.4l-7.68,41.31h5.38l-2.24,12.04h-26.71l2.24-12.04h6.66l4.26-22.93h-6.66.01Z"/>
  <path class="st1" d="M1006.91,44.22l1.66,9.84,8.95,3.13c.55.19.94.81.87,1.39-.04.34-.24.59-.51.7l-7.91,2.92,1.7,9.84c.1.61-.25,1.09-.8,1.08-.36,0-.71-.22-.93-.54l-5.02-6.16.45-2.41,3.75,4.61-1.24-7.21c-.1-.48.1-.93.5-1.08l5.83-2.15-6.54-2.29c-.44-.13-.82-.56-.91-1.07l-1.22-7.25-2.82,5.83c-.18.37-.59.54-1.04.39l-6.59-2.33,3.94,4.81h-2.41l-5.17-6.3c-.4-.49-.42-1.18-.05-1.53.25-.23.6-.26.93-.12l8.87,3.14,3.83-7.91c.23-.49.83-.59,1.33-.23.3.22.5.56.56.9"/>
  <path class="st0" d="M1034.08,35.46l1.57-8.45,11.77-9.93h11.4l-7.68,41.31h5.38l-2.24,12.04h-26.71l2.24-12.04h6.66l4.26-22.93h-6.66.01Z"/>
  <path class="st1" d="M1060.83,3.45l1.66,9.84,8.95,3.13c.55.19.94.81.87,1.39-.04.34-.24.59-.51.7l-7.91,2.92,1.7,9.84c.1.61-.25,1.09-.8,1.08-.36,0-.71-.22-.93-.54l-5.02-6.16.45-2.41,3.75,4.61-1.24-7.21c-.1-.48.1-.93.5-1.08l5.83-2.15-6.54-2.29c-.44-.13-.82-.56-.91-1.07l-1.22-7.25-2.82,5.83c-.18.37-.59.54-1.04.39l-6.59-2.33,3.94,4.81h-2.41l-5.17-6.3c-.4-.49-.42-1.18-.05-1.53.25-.23.6-.26.93-.12l8.87,3.14,3.83-7.91c.23-.49.83-.59,1.33-.23.3.22.5.56.56.9"/>
  <path class="st0" d="M980.15,76.23l1.57-8.45,11.77-9.93h11.4l-7.68,41.31h5.38l-2.24,12.04h-26.71l2.24-12.04h6.66l4.26-22.93h-6.66.01Z"/>
  <path class="st1" d="M1006.91,44.22l1.66,9.84,8.95,3.13c.55.19.94.81.87,1.39-.04.34-.24.59-.51.7l-7.91,2.92,1.7,9.84c.1.61-.25,1.09-.8,1.08-.36,0-.71-.22-.93-.54l-5.02-6.16.45-2.41,3.75,4.61-1.24-7.21c-.1-.48.1-.93.5-1.08l5.83-2.15-6.54-2.29c-.44-.13-.82-.56-.91-1.07l-1.22-7.25-2.82,5.83c-.18.37-.59.54-1.04.39l-6.59-2.33,3.94,4.81h-2.41l-5.17-6.3c-.4-.49-.42-1.18-.05-1.53.25-.23.6-.26.93-.12l8.87,3.14,3.83-7.91c.23-.49.83-.59,1.33-.23.3.22.5.56.56.9"/>
  <path class="st0" d="M872.3,76.23l1.57-8.45,11.77-9.93h11.4l-7.68,41.31h5.38l-2.24,12.04h-26.71l2.24-12.04h6.66l4.26-22.93h-6.66,0Z"/>
  <path class="st1" d="M899.06,44.22l1.66,9.84,8.95,3.13c.55.19.94.81.87,1.39-.04.34-.24.59-.51.7l-7.91,2.92,1.7,9.84c.1.61-.25,1.09-.8,1.08-.36,0-.71-.22-.93-.54l-5.02-6.16.45-2.41,3.75,4.61-1.24-7.21c-.1-.48.1-.93.5-1.08l5.83-2.15-6.54-2.29c-.44-.13-.82-.56-.91-1.07l-1.22-7.25-2.82,5.83c-.18.37-.59.54-1.04.39l-6.59-2.33,3.94,4.81h-2.41l-5.17-6.3c-.4-.49-.42-1.18-.05-1.53.25-.23.6-.26.93-.12l8.87,3.14,3.83-7.91c.23-.49.83-.59,1.33-.23.3.22.5.56.56.9"/>
  <path class="st0" d="M926.23,35.46l1.57-8.45,11.77-9.93h11.4l-7.68,41.31h5.38l-2.24,12.04h-26.71l2.24-12.04h6.66l4.26-22.93h-6.66,0Z"/>
  <path class="st1" d="M952.98,3.45l1.66,9.84,8.95,3.13c.55.19.94.81.87,1.39-.04.34-.24.59-.51.7l-7.91,2.92,1.7,9.84c.1.61-.25,1.09-.8,1.08-.36,0-.71-.22-.93-.54l-5.02-6.16.45-2.41,3.75,4.61-1.24-7.21c-.1-.48.1-.93.5-1.08l5.83-2.15-6.54-2.29c-.44-.13-.82-.56-.91-1.07l-1.22-7.25-2.82,5.83c-.18.37-.59.54-1.04.39l-6.59-2.33,3.94,4.81h-2.41l-5.17-6.3c-.4-.49-.42-1.18-.05-1.53.25-.23.6-.26.93-.12l8.87,3.14,3.83-7.91c.23-.49.83-.59,1.33-.23.3.22.5.56.56.9"/>
  <path class="st0" d="M872.3,76.23l1.57-8.45,11.77-9.93h11.4l-7.68,41.31h5.38l-2.24,12.04h-26.71l2.24-12.04h6.66l4.26-22.93h-6.66,0Z"/>
  <path class="st1" d="M899.06,44.22l1.66,9.84,8.95,3.13c.55.19.94.81.87,1.39-.04.34-.24.59-.51.7l-7.91,2.92,1.7,9.84c.1.61-.25,1.09-.8,1.08-.36,0-.71-.22-.93-.54l-5.02-6.16.45-2.41,3.75,4.61-1.24-7.21c-.1-.48.1-.93.5-1.08l5.83-2.15-6.54-2.29c-.44-.13-.82-.56-.91-1.07l-1.22-7.25-2.82,5.83c-.18.37-.59.54-1.04.39l-6.59-2.33,3.94,4.81h-2.41l-5.17-6.3c-.4-.49-.42-1.18-.05-1.53.25-.23.6-.26.93-.12l8.87,3.14,3.83-7.91c.23-.49.83-.59,1.33-.23.3.22.5.56.56.9"/>
  <path class="st0" d="M764.46,76.23l1.57-8.45,11.77-9.93h11.4l-7.68,41.31h5.38l-2.24,12.04h-26.71l2.24-12.04h6.66l4.26-22.93h-6.66,0Z"/>
  <path class="st1" d="M791.21,44.22l1.66,9.84,8.95,3.13c.55.19.94.81.87,1.39-.04.34-.24.59-.51.7l-7.91,2.92,1.7,9.84c.1.61-.25,1.09-.8,1.08-.36,0-.71-.22-.93-.54l-5.02-6.16.45-2.41,3.75,4.61-1.24-7.21c-.1-.48.1-.93.5-1.08l5.83-2.15-6.54-2.29c-.44-.13-.82-.56-.91-1.07l-1.22-7.25-2.82,5.83c-.18.37-.59.54-1.04.39l-6.59-2.33,3.94,4.81h-2.41l-5.17-6.3c-.4-.49-.42-1.18-.05-1.53.25-.23.6-.26.93-.12l8.87,3.14,3.83-7.91c.23-.49.83-.59,1.33-.23.3.22.5.56.56.9"/>
  <path class="st0" d="M818.38,35.46l1.57-8.45,11.77-9.93h11.4l-7.68,41.31h5.38l-2.24,12.04h-26.71l2.24-12.04h6.66l4.26-22.93h-6.66,0Z"/>
  <path class="st1" d="M845.14,3.45l1.66,9.84,8.95,3.13c.55.19.94.81.87,1.39-.04.34-.24.59-.51.7l-7.91,2.92,1.7,9.84c.1.61-.25,1.09-.8,1.08-.36,0-.71-.22-.93-.54l-5.02-6.16.45-2.41,3.75,4.61-1.24-7.21c-.1-.48.1-.93.5-1.08l5.83-2.15-6.54-2.29c-.44-.13-.82-.56-.91-1.07l-1.22-7.25-2.82,5.83c-.18.37-.59.54-1.04.39l-6.59-2.33,3.94,4.81h-2.41l-5.17-6.3c-.4-.49-.42-1.18-.05-1.53.25-.23.6-.26.93-.12l8.87,3.14,3.83-7.91c.23-.49.83-.59,1.33-.23.3.22.5.56.56.9"/>
  <path class="st0" d="M764.46,76.23l1.57-8.45,11.77-9.93h11.4l-7.68,41.31h5.38l-2.24,12.04h-26.71l2.24-12.04h6.66l4.26-22.93h-6.66,0Z"/>
  <path class="st1" d="M791.21,44.22l1.66,9.84,8.95,3.13c.55.19.94.81.87,1.39-.04.34-.24.59-.51.7l-7.91,2.92,1.7,9.84c.1.61-.25,1.09-.8,1.08-.36,0-.71-.22-.93-.54l-5.02-6.16.45-2.41,3.75,4.61-1.24-7.21c-.1-.48.1-.93.5-1.08l5.83-2.15-6.54-2.29c-.44-.13-.82-.56-.91-1.07l-1.22-7.25-2.82,5.83c-.18.37-.59.54-1.04.39l-6.59-2.33,3.94,4.81h-2.41l-5.17-6.3c-.4-.49-.42-1.18-.05-1.53.25-.23.6-.26.93-.12l8.87,3.14,3.83-7.91c.23-.49.83-.59,1.33-.23.3.22.5.56.56.9"/>
  <path class="st0" d="M656.61,76.23l1.57-8.45,11.77-9.93h11.4l-7.68,41.31h5.38l-2.24,12.04h-26.71l2.24-12.04h6.66l4.26-22.93h-6.66,0Z"/>
  <path class="st1" d="M683.36,44.22l1.66,9.84,8.95,3.13c.55.19.94.81.87,1.39-.04.34-.24.59-.51.7l-7.91,2.92,1.7,9.84c.1.61-.25,1.09-.8,1.08-.36,0-.71-.22-.93-.54l-5.02-6.16.45-2.41,3.75,4.61-1.24-7.21c-.1-.48.1-.93.5-1.08l5.83-2.15-6.54-2.29c-.44-.13-.82-.56-.91-1.07l-1.22-7.25-2.82,5.83c-.18.37-.59.54-1.04.39l-6.59-2.33,3.94,4.81h-2.41l-5.17-6.3c-.4-.49-.42-1.18-.05-1.53.25-.23.6-.26.93-.12l8.87,3.14,3.83-7.91c.23-.49.83-.59,1.33-.23.3.22.5.56.56.9"/>
  <path class="st0" d="M710.53,35.46l1.57-8.45,11.77-9.93h11.4l-7.68,41.31h5.38l-2.24,12.04h-26.71l2.24-12.04h6.66l4.26-22.93h-6.66,0Z"/>
  <path class="st1" d="M737.29,3.45l1.66,9.84,8.95,3.13c.55.19.94.81.87,1.39-.04.34-.24.59-.51.7l-7.91,2.92,1.7,9.84c.1.61-.25,1.09-.8,1.08-.36,0-.71-.22-.93-.54l-5.02-6.16.45-2.41,3.75,4.61-1.24-7.21c-.1-.48.1-.93.5-1.08l5.83-2.15-6.54-2.29c-.44-.13-.82-.56-.91-1.07l-1.22-7.25-2.82,5.83c-.18.37-.59.54-1.04.39l-6.59-2.33,3.94,4.81h-2.41l-5.17-6.3c-.4-.49-.42-1.18-.05-1.53.25-.23.6-.26.93-.12l8.87,3.14,3.83-7.91c.23-.49.83-.59,1.33-.23.3.22.5.56.56.9"/>
  <path class="st0" d="M656.61,76.23l1.57-8.45,11.77-9.93h11.4l-7.68,41.31h5.38l-2.24,12.04h-26.71l2.24-12.04h6.66l4.26-22.93h-6.66,0Z"/>
  <path class="st1" d="M683.36,44.22l1.66,9.84,8.95,3.13c.55.19.94.81.87,1.39-.04.34-.24.59-.51.7l-7.91,2.92,1.7,9.84c.1.61-.25,1.09-.8,1.08-.36,0-.71-.22-.93-.54l-5.02-6.16.45-2.41,3.75,4.61-1.24-7.21c-.1-.48.1-.93.5-1.08l5.83-2.15-6.54-2.29c-.44-.13-.82-.56-.91-1.07l-1.22-7.25-2.82,5.83c-.18.37-.59.54-1.04.39l-6.59-2.33,3.94,4.81h-2.41l-5.17-6.3c-.4-.49-.42-1.18-.05-1.53.25-.23.6-.26.93-.12l8.87,3.14,3.83-7.91c.23-.49.83-.59,1.33-.23.3.22.5.56.56.9"/>
  <path class="st0" d="M548.76,76.23l1.57-8.45,11.77-9.93h11.4l-7.68,41.31h5.38l-2.24,12.04h-26.71l2.24-12.04h6.66l4.26-22.93h-6.66,0Z"/>
  <path class="st1" d="M575.52,44.22l1.66,9.84,8.95,3.13c.55.19.94.81.87,1.39-.04.34-.24.59-.51.7l-7.91,2.92,1.7,9.84c.1.61-.25,1.09-.8,1.08-.36,0-.71-.22-.93-.54l-5.02-6.16.45-2.41,3.75,4.61-1.24-7.21c-.1-.48.1-.93.5-1.08l5.83-2.15-6.54-2.29c-.44-.13-.82-.56-.91-1.07l-1.22-7.25-2.82,5.83c-.18.37-.59.54-1.04.39l-6.59-2.33,3.94,4.81h-2.41l-5.17-6.3c-.4-.49-.42-1.18-.05-1.53.25-.23.6-.26.93-.12l8.87,3.14,3.83-7.91c.23-.49.83-.59,1.33-.23.3.22.5.56.56.9"/>
  <path class="st0" d="M602.69,35.46l1.57-8.45,11.77-9.93h11.4l-7.68,41.31h5.38l-2.24,12.04h-26.71l2.24-12.04h6.66l4.26-22.93h-6.66,0Z"/>
  <path class="st1" d="M629.44,3.45l1.66,9.84,8.95,3.13c.55.19.94.81.87,1.39-.04.34-.24.59-.51.7l-7.91,2.92,1.7,9.84c.1.61-.25,1.09-.8,1.08-.36,0-.71-.22-.93-.54l-5.02-6.16.45-2.41,3.75,4.61-1.24-7.21c-.1-.48.1-.93.5-1.08l5.83-2.15-6.54-2.29c-.44-.13-.82-.56-.91-1.07l-1.22-7.25-2.82,5.83c-.18.37-.59.54-1.04.39l-6.59-2.33,3.94,4.81h-2.41l-5.17-6.3c-.4-.49-.42-1.18-.05-1.53.25-.23.6-.26.93-.12l8.87,3.14,3.83-7.91c.23-.49.83-.59,1.33-.23.3.22.5.56.56.9"/>
  <path class="st0" d="M548.76,76.23l1.57-8.45,11.77-9.93h11.4l-7.68,41.31h5.38l-2.24,12.04h-26.71l2.24-12.04h6.66l4.26-22.93h-6.66,0Z"/>
  <path class="st1" d="M575.52,44.22l1.66,9.84,8.95,3.13c.55.19.94.81.87,1.39-.04.34-.24.59-.51.7l-7.91,2.92,1.7,9.84c.1.61-.25,1.09-.8,1.08-.36,0-.71-.22-.93-.54l-5.02-6.16.45-2.41,3.75,4.61-1.24-7.21c-.1-.48.1-.93.5-1.08l5.83-2.15-6.54-2.29c-.44-.13-.82-.56-.91-1.07l-1.22-7.25-2.82,5.83c-.18.37-.59.54-1.04.39l-6.59-2.33,3.94,4.81h-2.41l-5.17-6.3c-.4-.49-.42-1.18-.05-1.53.25-.23.6-.26.93-.12l8.87,3.14,3.83-7.91c.23-.49.83-.59,1.33-.23.3.22.5.56.56.9"/>
  <path class="st0" d="M440.91,76.23l1.57-8.45,11.77-9.93h11.4l-7.68,41.31h5.38l-2.24,12.04h-26.71l2.24-12.04h6.66l4.26-22.93h-6.66,0Z"/>
  <path class="st1" d="M467.67,44.22l1.66,9.84,8.95,3.13c.55.19.94.81.87,1.39-.04.34-.24.59-.51.7l-7.91,2.92,1.7,9.84c.1.61-.25,1.09-.8,1.08-.36,0-.71-.22-.93-.54l-5.02-6.16.45-2.41,3.75,4.61-1.24-7.21c-.1-.48.1-.93.5-1.08l5.83-2.15-6.54-2.29c-.44-.13-.82-.56-.91-1.07l-1.22-7.25-2.82,5.83c-.18.37-.59.54-1.04.39l-6.59-2.33,3.94,4.81h-2.41l-5.17-6.3c-.4-.49-.42-1.18-.05-1.53.25-.23.6-.26.93-.12l8.87,3.14,3.83-7.91c.23-.49.83-.59,1.33-.23.3.22.5.56.56.9"/>
  <path class="st0" d="M494.84,35.46l1.57-8.45,11.77-9.93h11.4l-7.68,41.31h5.38l-2.24,12.04h-26.71l2.24-12.04h6.66l4.26-22.93h-6.66,0Z"/>
  <path class="st1" d="M521.59,3.45l1.66,9.84,8.95,3.13c.55.19.94.81.87,1.39-.04.34-.24.59-.51.7l-7.91,2.92,1.7,9.84c.1.61-.25,1.09-.8,1.08-.36,0-.71-.22-.93-.54l-5.02-6.16.45-2.41,3.75,4.61-1.24-7.21c-.1-.48.1-.93.5-1.08l5.83-2.15-6.54-2.29c-.44-.13-.82-.56-.91-1.07l-1.22-7.25-2.82,5.83c-.18.37-.59.54-1.04.39l-6.59-2.33,3.94,4.81h-2.41l-5.17-6.3c-.4-.49-.42-1.18-.05-1.53.25-.23.6-.26.93-.12l8.87,3.14,3.83-7.91c.23-.49.83-.59,1.33-.23.3.22.5.56.56.9"/>
  <path class="st0" d="M440.91,76.23l1.57-8.45,11.77-9.93h11.4l-7.68,41.31h5.38l-2.24,12.04h-26.71l2.24-12.04h6.66l4.26-22.93h-6.66,0Z"/>
  <path class="st1" d="M467.67,44.22l1.66,9.84,8.95,3.13c.55.19.94.81.87,1.39-.04.34-.24.59-.51.7l-7.91,2.92,1.7,9.84c.1.61-.25,1.09-.8,1.08-.36,0-.71-.22-.93-.54l-5.02-6.16.45-2.41,3.75,4.61-1.24-7.21c-.1-.48.1-.93.5-1.08l5.83-2.15-6.54-2.29c-.44-.13-.82-.56-.91-1.07l-1.22-7.25-2.82,5.83c-.18.37-.59.54-1.04.39l-6.59-2.33,3.94,4.81h-2.41l-5.17-6.3c-.4-.49-.42-1.18-.05-1.53.25-.23.6-.26.93-.12l8.87,3.14,3.83-7.91c.23-.49.83-.59,1.33-.23.3.22.5.56.56.9"/>
  <path class="st0" d="M333.07,76.23l1.57-8.45,11.77-9.93h11.4l-7.68,41.31h5.38l-2.24,12.04h-26.71l2.24-12.04h6.66l4.26-22.93h-6.66,0Z"/>
  <path class="st1" d="M359.82,44.22l1.66,9.84,8.95,3.13c.55.19.94.81.87,1.39-.04.34-.24.59-.51.7l-7.91,2.92,1.7,9.84c.1.61-.25,1.09-.8,1.08-.36,0-.71-.22-.93-.54l-5.02-6.16.45-2.41,3.75,4.61-1.24-7.21c-.1-.48.1-.93.5-1.08l5.83-2.15-6.54-2.29c-.44-.13-.82-.56-.91-1.07l-1.22-7.25-2.82,5.83c-.18.37-.59.54-1.04.39l-6.59-2.33,3.94,4.81h-2.41l-5.17-6.3c-.4-.49-.42-1.18-.05-1.53.25-.23.6-.26.93-.12l8.87,3.14,3.83-7.91c.23-.49.83-.59,1.33-.23.3.22.5.56.56.9"/>
  <path class="st0" d="M386.99,35.46l1.57-8.45,11.77-9.93h11.4l-7.68,41.31h5.38l-2.24,12.04h-26.71l2.24-12.04h6.66l4.26-22.93h-6.66,0Z"/>
  <path class="st1" d="M413.74,3.45l1.66,9.84,8.95,3.13c.55.19.94.81.87,1.39-.04.34-.24.59-.51.7l-7.91,2.92,1.7,9.84c.1.61-.25,1.09-.8,1.08-.36,0-.71-.22-.93-.54l-5.02-6.16.45-2.41,3.75,4.61-1.24-7.21c-.1-.48.1-.93.5-1.08l5.83-2.15-6.54-2.29c-.44-.13-.82-.56-.91-1.07l-1.22-7.25-2.82,5.83c-.18.37-.59.54-1.04.39l-6.59-2.33,3.94,4.81h-2.41l-5.17-6.3c-.4-.49-.42-1.18-.05-1.53.25-.23.6-.26.93-.12l8.87,3.14,3.83-7.91c.23-.49.83-.59,1.33-.23.3.22.5.56.56.9"/>
  <path class="st0" d="M333.07,76.23l1.57-8.45,11.77-9.93h11.4l-7.68,41.31h5.38l-2.24,12.04h-26.71l2.24-12.04h6.66l4.26-22.93h-6.66,0Z"/>
  <path class="st1" d="M359.82,44.22l1.66,9.84,8.95,3.13c.55.19.94.81.87,1.39-.04.34-.24.59-.51.7l-7.91,2.92,1.7,9.84c.1.61-.25,1.09-.8,1.08-.36,0-.71-.22-.93-.54l-5.02-6.16.45-2.41,3.75,4.61-1.24-7.21c-.1-.48.1-.93.5-1.08l5.83-2.15-6.54-2.29c-.44-.13-.82-.56-.91-1.07l-1.22-7.25-2.82,5.83c-.18.37-.59.54-1.04.39l-6.59-2.33,3.94,4.81h-2.41l-5.17-6.3c-.4-.49-.42-1.18-.05-1.53.25-.23.6-.26.93-.12l8.87,3.14,3.83-7.91c.23-.49.83-.59,1.33-.23.3.22.5.56.56.9"/>
  <path class="st0" d="M225.22,76.23l1.57-8.45,11.77-9.93h11.4l-7.68,41.31h5.38l-2.24,12.04h-26.71l2.24-12.04h6.66l4.26-22.93h-6.66,0Z"/>
  <path class="st1" d="M251.97,44.22l1.66,9.84,8.95,3.13c.55.19.94.81.87,1.39-.04.34-.24.59-.51.7l-7.91,2.92,1.7,9.84c.1.61-.25,1.09-.8,1.08-.36,0-.71-.22-.93-.54l-5.02-6.16.45-2.41,3.75,4.61-1.24-7.21c-.1-.48.1-.93.5-1.08l5.83-2.15-6.54-2.29c-.44-.13-.82-.56-.91-1.07l-1.22-7.25-2.82,5.83c-.18.37-.59.54-1.04.39l-6.59-2.33,3.94,4.81h-2.41l-5.17-6.3c-.4-.49-.42-1.18-.05-1.53.25-.23.6-.26.93-.12l8.87,3.14,3.83-7.91c.23-.49.83-.59,1.33-.23.3.22.5.56.56.9"/>
  <path class="st0" d="M279.14,35.46l1.57-8.45,11.77-9.93h11.4l-7.68,41.31h5.38l-2.24,12.04h-26.71l2.24-12.04h6.66l4.26-22.93h-6.66,0Z"/>
  <path class="st1" d="M305.9,3.45l1.66,9.84,8.95,3.13c.55.19.94.81.87,1.39-.04.34-.24.59-.51.7l-7.91,2.92,1.7,9.84c.1.61-.25,1.09-.8,1.08-.36,0-.71-.22-.93-.54l-5.02-6.16.45-2.41,3.75,4.61-1.24-7.21c-.1-.48.1-.93.5-1.08l5.83-2.15-6.54-2.29c-.44-.13-.82-.56-.91-1.07l-1.22-7.25-2.82,5.83c-.18.37-.59.54-1.04.39l-6.59-2.33,3.94,4.81h-2.41l-5.17-6.3c-.4-.49-.42-1.18-.05-1.53.25-.23.6-.26.93-.12l8.87,3.14,3.83-7.91c.23-.49.83-.59,1.33-.23.3.22.5.56.56.9"/>
  <path class="st0" d="M225.22,76.23l1.57-8.45,11.77-9.93h11.4l-7.68,41.31h5.38l-2.24,12.04h-26.71l2.24-12.04h6.66l4.26-22.93h-6.66,0Z"/>
  <path class="st1" d="M251.97,44.22l1.66,9.84,8.95,3.13c.55.19.94.81.87,1.39-.04.34-.24.59-.51.7l-7.91,2.92,1.7,9.84c.1.61-.25,1.09-.8,1.08-.36,0-.71-.22-.93-.54l-5.02-6.16.45-2.41,3.75,4.61-1.24-7.21c-.1-.48.1-.93.5-1.08l5.83-2.15-6.54-2.29c-.44-.13-.82-.56-.91-1.07l-1.22-7.25-2.82,5.83c-.18.37-.59.54-1.04.39l-6.59-2.33,3.94,4.81h-2.41l-5.17-6.3c-.4-.49-.42-1.18-.05-1.53.25-.23.6-.26.93-.12l8.87,3.14,3.83-7.91c.23-.49.83-.59,1.33-.23.3.22.5.56.56.9"/>
  <path class="st0" d="M117.37,76.23l1.57-8.45,11.77-9.93h11.4l-7.68,41.31h5.38l-2.24,12.04h-26.71l2.24-12.04h6.66l4.26-22.93h-6.66,0Z"/>
  <path class="st1" d="M144.12,44.22l1.66,9.84,8.95,3.13c.55.19.94.81.87,1.39-.04.34-.24.59-.51.7l-7.91,2.92,1.7,9.84c.1.61-.25,1.09-.8,1.08-.36,0-.71-.22-.93-.54l-5.02-6.16.45-2.41,3.75,4.61-1.24-7.21c-.1-.48.1-.93.5-1.08l5.83-2.15-6.54-2.29c-.44-.13-.82-.56-.91-1.07l-1.22-7.25-2.82,5.83c-.18.37-.59.54-1.04.39l-6.59-2.33,3.94,4.81h-2.41l-5.17-6.3c-.4-.49-.42-1.18-.05-1.53.25-.23.6-.26.93-.12l8.87,3.14,3.83-7.91c.23-.49.83-.59,1.33-.23.3.22.5.56.56.9"/>
  <path class="st0" d="M171.29,35.46l1.57-8.45,11.77-9.93h11.4l-7.68,41.31h5.38l-2.24,12.04h-26.71l2.24-12.04h6.66l4.26-22.93h-6.66,0Z"/>
  <path class="st1" d="M198.05,3.45l1.66,9.84,8.95,3.13c.55.19.94.81.87,1.39-.04.34-.24.59-.51.7l-7.91,2.92,1.7,9.84c.1.61-.25,1.09-.8,1.08-.36,0-.71-.22-.93-.54l-5.02-6.16.45-2.41,3.75,4.61-1.24-7.21c-.1-.48.1-.93.5-1.08l5.83-2.15-6.54-2.29c-.44-.13-.82-.56-.91-1.07l-1.22-7.25-2.82,5.83c-.18.37-.59.54-1.04.39l-6.59-2.33,3.94,4.81h-2.41l-5.17-6.3c-.4-.49-.42-1.18-.05-1.53.25-.23.6-.26.93-.12l8.87,3.14,3.83-7.91c.23-.49.83-.59,1.33-.23.3.22.5.56.56.9"/>
  <path class="st0" d="M117.37,76.23l1.57-8.45,11.77-9.93h11.4l-7.68,41.31h5.38l-2.24,12.04h-26.71l2.24-12.04h6.66l4.26-22.93h-6.66,0Z"/>
  <path class="st1" d="M144.12,44.22l1.66,9.84,8.95,3.13c.55.19.94.81.87,1.39-.04.34-.24.59-.51.7l-7.91,2.92,1.7,9.84c.1.61-.25,1.09-.8,1.08-.36,0-.71-.22-.93-.54l-5.02-6.16.45-2.41,3.75,4.61-1.24-7.21c-.1-.48.1-.93.5-1.08l5.83-2.15-6.54-2.29c-.44-.13-.82-.56-.91-1.07l-1.22-7.25-2.82,5.83c-.18.37-.59.54-1.04.39l-6.59-2.33,3.94,4.81h-2.41l-5.17-6.3c-.4-.49-.42-1.18-.05-1.53.25-.23.6-.26.93-.12l8.87,3.14,3.83-7.91c.23-.49.83-.59,1.33-.23.3.22.5.56.56.9"/>
  <path class="st0" d="M9.52,76.23l1.57-8.45,11.77-9.93h11.4l-7.68,41.31h5.38l-2.24,12.04H3.02l2.24-12.04h6.66l4.26-22.93h-6.66Z"/>
  <path class="st1" d="M36.28,44.22l1.66,9.84,8.95,3.13c.55.19.94.81.87,1.39-.04.34-.24.59-.51.7l-7.91,2.92,1.7,9.84c.1.61-.25,1.09-.8,1.08-.36,0-.71-.22-.93-.54l-5.02-6.16.45-2.41,3.75,4.61-1.24-7.21c-.1-.48.1-.93.5-1.08l5.83-2.15-6.54-2.29c-.44-.13-.82-.56-.91-1.07l-1.22-7.25-2.82,5.83c-.18.37-.59.54-1.04.39l-6.59-2.33,3.94,4.81h-2.41l-5.17-6.3c-.4-.49-.42-1.18-.05-1.53.25-.23.6-.26.93-.12l8.87,3.14,3.83-7.91c.23-.49.83-.59,1.33-.23.3.22.5.56.56.9"/>
  <path class="st0" d="M63.45,35.46l1.57-8.45,11.77-9.93h11.4l-7.68,41.31h5.38l-2.24,12.04h-26.71l2.24-12.04h6.66l4.26-22.93h-6.66,0Z"/>
  <path class="st1" d="M90.2,3.45l1.66,9.84,8.95,3.13c.55.19.94.81.87,1.39-.04.34-.24.59-.51.7l-7.91,2.92,1.7,9.84c.1.61-.25,1.09-.8,1.08-.36,0-.71-.22-.93-.54l-5.02-6.16.45-2.41,3.75,4.61-1.24-7.21c-.1-.48.1-.93.5-1.08l5.83-2.15-6.54-2.29c-.44-.13-.82-.56-.91-1.07l-1.22-7.25-2.82,5.83c-.18.37-.59.54-1.04.39l-6.59-2.33,3.94,4.81h-2.41l-5.17-6.3c-.4-.49-.42-1.18-.05-1.53.25-.23.6-.26.93-.12l8.87,3.14,3.83-7.91c.23-.49.83-.59,1.33-.23.3.22.5.56.56.9"/>
</svg>