<?xml version="1.0" encoding="UTF-8"?>
<svg id="Layer_1" xmlns="http://www.w3.org/2000/svg" version="1.1" viewBox="0 0 778.09 204.65">
  <!-- Generator: Adobe Illustrator 29.5.1, SVG Export Plug-In . SVG Version: 2.1.0 Build 141)  -->
  <defs>
    <style>
      .st0 {
        fill: #00163f;
      }

      .st1 {
        fill: #080809;
      }

      .st2 {
        fill: #fcbe3b;
      }

      .st3 {
        fill: #185ccb;
      }

      .st4 {
        fill: #f2f2f2;
      }

      .st5 {
        fill: #032e82;
      }

      .st6 {
        fill: #f6b93a;
      }

      .st7 {
        fill: #e2a63b;
      }

      .st8 {
        fill: #f6f7f9;
      }
    </style>
  </defs>
  <g>
    <path class="st2" d="M714.91,106.03l2.07-13.07h-7.84l-9.48,59.86h9.15l-3.89,24.57h-48.23l3.89-24.57h9.15l9.48-59.86h-7.84l-2.07,13.07h-24.57l5.94-37.51h94.62l-5.94,37.51h-24.44Z"/>
    <g>
      <path class="st7" d="M700.36,175.01c.86.49,1.75-.08,2.36-.86.78-1,1.15-2.39,1.42-3.65.65-3.29,1.24-6.82,1.81-10.08.19-1.12.37-2.45.19-3.47-.24-1.59-1.42-2.45-2.73-1.49-.83.61-1.4,1.81-1.7,2.87-.8,3.15-1.21,6.47-1.84,9.7-.28,1.96-1.33,5.65.48,6.97h.02Z"/>
      <path class="st7" d="M740.52,70.91c-1.52.75-2.17,3.08-2.45,4.76-1.07,6.05-2.15,12.33-3.22,18.44-.27,1.58-.57,3.22-.83,4.78-.18,1.1-.35,2.43-.1,3.42.52,2.16,2.57,1.78,3.51-.02.47-.87.68-1.95.86-2.97,1.26-7.46,3.35-18.5,4.43-25.67.2-1.45-.39-3.54-2.18-2.75h-.02Z"/>
      <path class="st7" d="M664.69,103.57c1.09.66,2.13-.15,2.91-1.37.7-1.16,1.01-2.49,1.28-3.81.35-2.16,1.02-4.51.24-6.53-1.11-2.3-3.2-.63-3.91,1.14-.46,1.02-.75,2.27-.97,3.44-.33,2.07-1.29,5.73.44,7.13h.02Z"/>
      <path class="st7" d="M694.48,154.84c.88.54,2.05-.08,2.46-.98,2.56-12.4,7.94-47.13,10.32-60.42.07-.49.12-.93.06-1.38-.33-1.86-2.34-1.63-3.31-.07-.48.72-.72,1.54-.92,2.46-3,18.09-7.03,40.28-9.64,58.1-.03.85.37,1.96,1.02,2.28h.01Z"/>
    </g>
    <g>
      <path class="st4" d="M743.12,70.37l-5.35,33.81h-20.69l1.73-10.93-1.83-2.14h-7.84l-1.83,1.56-9.48,59.86,1.83,2.14h6.98l-3.31,20.87h-44.48l3.31-20.87h7.57l1.83-1.56,9.48-59.86-1.83-2.14h-7.84l-1.83,1.56-1.82,11.51h-20.82l5.35-33.81h90.87M745.29,68.52h-94.62l-5.94,37.51h24.57l2.07-13.07h7.84l-9.48,59.86h-9.15l-3.89,24.57h48.23l3.89-24.57h-9.15l9.48-59.86h7.84l-2.07,13.07h24.44l5.94-37.51h0Z"/>
      <path d="M745.29,68.52l-5.94,37.51h-24.44l2.07-13.07h-7.84l-9.48,59.86h9.15l-3.89,24.57h-48.23l3.89-24.57h9.15l9.48-59.86h-7.84l-2.07,13.07h-24.57l5.94-37.51h94.62M745.29,67.86h-94.62l-.65.56-5.94,37.51.65.76h24.57l.65-.56,1.98-12.51h6.5l-9.27,58.54h-8.58l-.65.56-3.89,24.57.65.76h48.23l.65-.56,3.89-24.57-.65-.76h-8.37l9.27-58.54h6.5l-1.95,12.31.65.76h24.44l.65-.56,5.94-37.51-.65-.76h0Z"/>
    </g>
  </g>
  <g>
    <path class="st2" d="M640.84,109.69l6.47-40.87h-19.47l-3.87,24.44h8.23l-5.05,31.89-22.05-56.33h-36.98l-3.87,24.44h8.49l-9.48,59.86h-8.5l-3.89,24.57h46.26l3.89-24.57h-8.5l5.05-31.89,22.03,56.46h28.49l10.77-68h-18.04Z"/>
    <g>
      <path class="st7" d="M625.67,129.24c-.06-1.42-.33-2.86-.74-4.21-.38-1.28-.89-2.52-1.38-3.77-5.85-14.47-13.01-32.97-19.01-47.41-.72-1.47-2.39-3.7-3.84-3.25-.7.38-.65,1.22-.41,2.17,5.24,13.4,18.01,45.82,23.63,59.18,1.41,2.98,1.9-.88,1.76-2.68v-.03Z"/>
      <path class="st7" d="M593.63,113.49c-.86-.18-1.15,2.09-1.32,2.83-.39,2.23-.76,4.57-1.14,6.86-1.26,7.61-2.52,15.19-3.78,22.77-.17,1.05-.34,2.07-.51,3.1-.24,1.69-.72,3.51-.48,5.15.46,2.56,2.57,2.26,3.51.21.23-.47.38-1,.51-1.57,1.56-8.87,3.94-22.64,5.2-31.5.14-1.3.11-2.6-.14-3.89-.28-1.35-.84-3.47-1.84-3.95h0Z"/>
      <path class="st7" d="M592.65,175.34c.93.5,1.86-.31,2.44-1.15,1.09-1.62,1.42-3.74,1.79-5.65.47-2.62,1-5.34,1.4-7.98.15-1.06.24-2.32.05-3.29-.29-1.57-1.28-2.46-2.58-1.52-1.19.9-1.83,2.7-2.19,4.19-.64,2.89-1.08,5.82-1.62,8.74-.3,1.91-1.05,5.42.69,6.65h.01Z"/>
      <path class="st7" d="M654.37,112.08c-.7.38-1.43,1.32-1.9,2.58-.24.64-.41,1.34-.55,2.07-2.65,15.42-5.86,34.5-8.56,50.32-.29,1.98-.89,4.17-.65,6.13.36,2.76,2.42,3,3.46.55,2.82-14.09,7.89-45.33,10.16-59.04.08-.74.11-1.33-.11-1.93-.27-.77-1.03-1.16-1.83-.69h-.01Z"/>
    </g>
    <g>
      <path class="st4" d="M645.15,70.67l-6.13,38.73,1.83,2.14h15.87l-10.18,64.3h-25.65l-21.57-55.28-3.55.38-5.05,31.89,1.83,2.14h6.33l-3.31,20.87h-42.52l3.3-20.87h6.92l1.83-1.56,9.48-59.86-1.83-2.14h-6.33l3.28-20.74h34.14l21.59,55.15,3.55-.39,5.05-31.89-1.83-2.14h-6.07l3.28-20.74h15.73M647.31,68.82h-19.47l-3.87,24.44h8.23l-5.05,31.89-22.05-56.33h-36.98l-3.87,24.44h8.49l-9.48,59.86h-8.5l-3.89,24.57h46.26l3.89-24.57h-8.5l5.05-31.89,22.03,56.46h28.49l10.77-68h-18.04l6.47-40.87h0Z"/>
      <path d="M647.31,68.82l-6.47,40.87h18.04l-10.77,68h-28.49l-22.03-56.46-5.05,31.89h8.5l-3.89,24.57h-46.26l3.89-24.57h8.5l9.48-59.86h-8.49l3.87-24.44h36.98l22.05,56.33,5.05-31.89h-8.23l3.87-24.44h19.47M647.31,68.16h-19.47l-.65.56-3.87,24.44.65.76h7.46l-4.55,28.72-21.17-54.06-.62-.42h-36.98l-.65.56-3.87,24.44.65.76h7.72l-9.27,58.54h-7.93l-.65.56-3.89,24.57.65.76h46.26l.65-.56,3.89-24.57-.65-.76h-7.72l4.55-28.71,21.14,54.19.62.42h28.49l.65-.56,10.77-68-.65-.76h-17.27l6.35-40.1-.65-.76h0Z"/>
    </g>
  </g>
  <g>
    <path class="st2" d="M551.83,93.26l-9.48,59.86h8.5l-3.89,24.57h-46.92l3.89-24.57h8.5l9.48-59.86h-8.5l3.87-24.44h46.92l-3.87,24.44h-8.5Z"/>
    <g>
      <path class="st7" d="M542.23,175.29c.57.33,1.42.22,2.01-.22.81-.57,1.22-1.58,1.44-2.54.85-4.25,1.7-9.18,2.42-13.45.19-1.19.4-2.91-.81-3.56-.78-.4-1.75-.07-2.35.59-.63.67-.93,1.64-1.12,2.55-.68,3.48-1.28,7.17-1.91,10.62-.18,1.58-1.35,5.05.31,5.99h.02Z"/>
      <path class="st7" d="M559.06,71.2c-1.96.83-2.03,4.37-2.46,6.24-.59,3.68-1.46,7.47-1.88,11.14-.02.59.03,1.12.28,1.6.66,1.31,2.43.98,3.2-.1.58-.73.82-1.67,1-2.57.75-4.12,1.63-8.95,2.31-13.08.12-.84.18-1.83-.24-2.55-.42-.76-1.36-1.03-2.18-.68h-.02Z"/>
      <path class="st7" d="M537.01,155.2c.91.37,2.17,0,2.66-.88,2.07-10.48,8.32-50.16,10.25-61.24.13-.7.1-1.42-.66-1.81-.72-.38-1.7-.28-2.34.28-.87.8-.97,2.02-1.18,3.16-2.9,17.88-6.97,41.34-9.66,58.76-.02.77.24,1.43.91,1.72h.02Z"/>
    </g>
    <g>
      <path class="st4" d="M562.03,70.67l-3.28,20.74h-6.91l-1.83,1.56-9.48,59.86,1.83,2.14h6.33l-3.31,20.87h-43.17l3.31-20.87h6.91l1.83-1.56,9.48-59.86-1.83-2.14h-6.33l3.28-20.74h43.17M564.19,68.82h-46.92l-3.87,24.44h8.49l-9.48,59.86h-8.49l-3.89,24.57h46.92l3.89-24.57h-8.49l9.48-59.86h8.49l3.87-24.44h0Z"/>
      <path d="M564.19,68.82l-3.87,24.44h-8.49l-9.48,59.86h8.49l-3.89,24.57h-46.92l3.89-24.57h8.49l9.48-59.86h-8.49l3.87-24.44h46.92M564.19,68.16h-46.92l-.65.56-3.87,24.44.65.76h7.72l-9.27,58.54h-7.93l-.65.56-3.89,24.57.65.76h46.92l.65-.56,3.89-24.57-.65-.76h-7.72l9.27-58.54h7.93l.65-.56,3.87-24.44-.65-.76h0Z"/>
    </g>
  </g>
  <g>
    <path class="st2" d="M510.67,85.9l-14.63-17.38h-69.4l-3.87,24.44h8.49l-9.48,59.86h-8.5l-3.89,24.57h46.92l3.89-24.57h-8.5l2.42-15.29h14.9l2.97,3.53-5.75,36.33h29.93l3.89-24.57h0l3.23-20.39-7.35-8.89,10.14-8.76,4.57-28.89ZM476.99,109.55l-4.09,3.53h-14.9l3.19-20.13h14.9l2.97,3.53-2.07,13.07Z"/>
    <g>
      <path class="st7" d="M508.57,86.26c-.28-.89-.86-1.72-1.5-2.44-2.79-3.13-6.51-7.2-9.4-10.37-.93-1.02-1.93-2.06-3.23-2.54-.91-.34-2.01-.38-2.03.51.01.53.55,1.26,1.2,1.99,3.02,3.38,6.62,7.25,9.57,10.59.6.7,1.12,1.49,1.37,2.37.24.84.24,1.76.1,2.71-1.2,7.05-2.52,15.36-3.85,22.29-.54,2.34-2.35,3.85-4.23,5.32-1.56,1.26-3.11,2.49-4.67,3.75-1.14.96-2.23,1.77-2.26,3.17-.02,1,.88,2.12,1.58,2.93,1.56,1.89,3.46,3.6,4.76,5.7,1.32,2.25.43,4.92.08,7.32-.82,4.81-1.65,9.66-2.46,14.45-.88,5.19-1.91,11.12-2.82,16.55-.14.86-.3,1.74-.27,2.53.04,2.49,2.55,2.67,3.52.57.4-.82.57-1.92.76-2.93,1.06-6,2-11.97,3.06-17.96.85-4.98,1.74-10.18,2.59-15.19.21-1.22.42-2.55.17-3.75-.26-1.39-1.16-2.56-2.07-3.6-1.13-1.3-2.32-2.58-3.46-3.92-1.93-2.22-1.91-3.67.53-5.59,1.49-1.23,3.1-2.48,4.64-3.72,1.31-1.07,2.78-2.14,3.63-3.43.9-1.3,1.16-2.88,1.42-4.42,1.11-6.6,2.54-14.67,3.47-20.45.1-.8.08-1.63-.18-2.42v-.02Z"/>
      <path class="st7" d="M451.57,174.94c.64.41,1.63.22,2.25-.32.67-.55,1.01-1.44,1.21-2.29.84-4.14,1.65-9.29,2.4-13.41.14-.84.3-1.73.09-2.53-.19-.78-.84-1.33-1.61-1.35-1.15-.04-2.03,1.02-2.38,2.1-.4,1.18-.55,2.46-.79,3.69-.5,2.8-1.02,5.77-1.51,8.52-.18,1.57-1.22,4.55.32,5.59h.02Z"/>
    </g>
    <g>
      <path class="st4" d="M495.18,70.37l13.53,16.08-4.34,27.38-9.63,8.31-.22,2.58,6.81,8.24-3.1,19.56h0s-3.65,23.01-3.65,23.01h-26.18l5.42-34.19-.41-1.48-2.97-3.53-1.42-.66h-14.9l-1.83,1.56-2.42,15.29,1.83,2.14h6.33l-3.3,20.87h-43.17l3.3-20.87h6.92l1.83-1.56,9.48-59.86-1.83-2.14h-6.33l3.28-20.74h66.95M458.01,114.93h14.9l1.21-.45,4.09-3.53.62-1.11,2.07-13.07-.41-1.48-2.97-3.53-1.42-.66h-14.9l-1.83,1.56-3.19,20.13,1.83,2.14M496.04,68.51h-69.4l-3.87,24.44h8.49l-9.48,59.86h-8.5l-3.89,24.57h46.92l3.89-24.57h-8.5l2.42-15.29h14.9l2.97,3.53-5.75,36.33h29.93l3.89-24.57h0l3.23-20.39-7.35-8.89,10.14-8.76,4.57-28.89-14.63-17.38h0ZM458.01,113.08l3.19-20.13h14.9l2.97,3.53-2.07,13.07-4.09,3.53h-14.9Z"/>
      <path d="M496.04,68.51l14.63,17.38-4.57,28.89-10.14,8.76,7.35,8.89-3.23,20.39h0l-3.89,24.57h-29.93l5.75-36.33-2.97-3.53h-14.9l-2.42,15.29h8.5l-3.89,24.57h-46.92l3.89-24.57h8.5l9.48-59.86h-8.49l3.87-24.44h69.4M458.01,113.08h14.9l4.09-3.53,2.07-13.07-2.97-3.53h-14.9l-3.19,20.13M496.04,67.85h-69.4l-.65.56-3.87,24.44.65.76h7.72l-9.27,58.54h-7.93l-.65.56-3.89,24.57.65.76h46.92l.65-.56,3.89-24.57-.65-.76h-7.72l2.21-13.97h14.03l2.58,3.06-5.71,36.03.65.76h29.93l.65-.56,3.89-24.57h0s3.23-20.39,3.23-20.39l-.14-.52-6.93-8.39,9.65-8.33.22-.4,4.57-28.89-.15-.53-14.63-17.38-.51-.24h0ZM461.76,93.62h14.03l2.58,3.06-1.99,12.53-3.72,3.21h-13.88l2.98-18.8h0Z"/>
    </g>
  </g>
  <g>
    <path class="st2" d="M418.89,96.31l3.06-19.34-7.12-8.46h-69.4l-3.87,24.44h8.49l-9.48,59.86h-8.49l-3.89,24.57h46.92l3.89-24.57h-8.49l2.11-13.33h30.98l19.63-16.95,4.15-26.22h-8.49ZM395.48,111.51l-4.09,3.53h-14.9l3.5-22.09h14.9l2.97,3.53-2.38,15.03Z"/>
    <g>
      <path class="st7" d="M413.39,98.42c.89.46,1.92.12,2.65-.6,1.22-1.22,1.5-3.06,1.89-4.72.18-.84.36-1.7.54-2.58.46-2.26.92-4.53,1.39-6.78.96-4.38,1.33-6.53-2.24-9.68-1.28-1.17-4.78-3.93-6.39-3.06-.95.93,1.64,3.26,2.28,4.1,1.18,1.33,1.86,2.62,1.83,4.31,0,1.11-.24,2.24-.45,3.34-.74,3.59-1.62,7.55-2.32,11.16-.27,1.46-.68,3.61.8,4.49h.02Z"/>
      <path class="st7" d="M422.89,98.71c-1.67.81-1.83,3.11-2.16,4.76-.48,2.82-.98,5.76-1.46,8.6-.22,1.28-.43,2.56-.65,3.84-.22,1.24-.39,2.5-.75,3.7-.45,1.57-1.49,2.83-2.74,3.86-4.81,4-9.94,7.94-14.72,11.94-.46.44-1.27,1.2-.87,1.7.2.21.7.26,1.32.13,1.35-.26,2.64-1.12,3.72-1.96,4.46-3.56,10.06-8.09,14.37-11.57.83-.68,1.64-1.41,2.21-2.32.55-.85.87-1.85,1.07-2.85.88-4.65,1.8-10.53,2.58-15.07.18-1.2.54-2.57.16-3.73-.27-.88-1.22-1.42-2.06-1.04h-.02Z"/>
      <path class="st7" d="M370.44,175c.52.3,1.24.23,1.83-.17.85-.56,1.34-1.65,1.6-2.65.92-4.11,1.6-8.75,2.34-12.79.14-.84.28-1.76.14-2.59-.22-1.58-1.68-2.31-2.94-1.24-.77.63-1.18,1.7-1.43,2.68-.69,3.21-1.19,6.61-1.8,9.85-.21,1.78-1.52,5.81.25,6.9h.02Z"/>
    </g>
    <g>
      <path class="st4" d="M413.97,70.37l6.02,7.15-2.93,18.5,1.83,2.14h6.33l-3.71,23.42-18.6,16.05h-30.29l-1.83,1.56-2.11,13.33,1.83,2.14h6.33l-3.3,20.87h-43.17l3.31-20.87h6.91l1.83-1.56,9.48-59.86-1.83-2.14h-6.33l3.28-20.74h66.96M376.49,116.89h14.9l1.21-.45,4.09-3.53.62-1.11,2.38-15.03-.41-1.48-2.97-3.53-1.42-.66h-14.9l-1.83,1.56-3.5,22.09,1.83,2.14M414.83,68.51h-69.4l-3.87,24.44h8.49l-9.48,59.86h-8.49l-3.89,24.57h46.92l3.89-24.57h-8.49l2.11-13.33h30.98l19.63-16.95,4.15-26.22h-8.49l3.06-19.34-7.12-8.46h0ZM376.49,115.04l3.5-22.09h14.9l2.97,3.53-2.38,15.03-4.09,3.53h-14.9Z"/>
      <path d="M414.83,68.51l7.12,8.46-3.06,19.34h8.49l-4.15,26.22-19.63,16.95h-30.98l-2.11,13.33h8.49l-3.89,24.57h-46.92l3.89-24.57h8.49l9.48-59.86h-8.49l3.87-24.44h69.4M376.49,115.04h14.9l4.09-3.53,2.38-15.03-2.97-3.53h-14.9l-3.5,22.09M414.83,67.85h-69.4l-.65.56-3.87,24.44.65.76h7.72l-9.27,58.54h-7.93l-.65.56-3.89,24.57.65.76h46.92l.65-.56,3.89-24.57-.65-.76h-7.72l1.9-12.01h30.41l.43-.16,19.63-16.95.22-.4,4.15-26.22-.65-.76h-7.72l2.94-18.57-.15-.53-7.12-8.46-.51-.24h0ZM380.55,93.62h14.03l2.58,3.06-2.29,14.49-3.72,3.21h-13.88l3.29-20.76h0Z"/>
    </g>
  </g>
  <g>
    <g>
      <path class="st2" d="M47.79,176.77l-14.23-16.9,11.67-73.67,19.77-17.07h48.77l2.09,2.49-3.84,20.69c-.22,1.19.07,2.31.85,3.24.77.93,1.82,1.42,3.03,1.42h6.26l-12.44,66.96-15.21,12.84h-46.72ZM72.2,96.05l-8.27,52.21-.23,1.44,3.24,3.68.23.23h.31s17.56,0,17.56,0l4.35-3.76,8.27-52.23.22-1.39-3.26-4.06h-17.91l-4.5,3.89Z"/>
      <path class="st4" d="M113.44,69.86l1.65,1.96-3.78,20.35c-.26,1.39.1,2.75,1,3.84.9,1.09,2.18,1.69,3.59,1.69h5.38l-12.24,65.85-14.81,12.5h-46.11l-13.79-16.39,1.76-11.09,9.82-61.99,19.36-16.72h48.16M66.86,154.33h18.43l.41-.35,3.94-3.41.4-.35.08-.53,8.23-51.97.17-1.07.1-.64-.4-.5-2.84-3.54-.44-.54h-18.53l-.41.35-4.09,3.54-.4.35-.08.53-8.23,51.94-.17,1.1-.11.67.45.51,3,3.4.03.03.03.03h0s.43.43.43.43M114.11,68.4h-49.38l-20.18,17.42-9.9,62.51-1.86,11.75,14.66,17.42h47.32l15.61-13.18,12.65-68.08h-7.13c-.99,0-1.84-.4-2.47-1.16-.63-.76-.87-1.67-.69-2.64l3.91-21.02-2.53-3.01h0ZM67.47,152.88h0s-3-3.41-3-3.41l.17-1.1,8.23-51.94,4.09-3.54h17.29l2.84,3.54-.17,1.07-8.23,51.97-3.94,3.41h-17.29Z"/>
    </g>
    <g>
      <path class="st7" d="M105.74,93.1c.43,3.14,3.42,5.13,6.23,5.63.49.07,1.55.28,1.65-.38-.05-.73-.6-1.3-1.02-2.03-.44-.69-.91-1.49-1.16-2.34-.72-2.4-.06-4.94.52-7.31.85-3.5,1.85-6.97,2.62-10.49.17-.9.28-1.87.14-2.74-.43-2.81-3.08-3.4-4.49-.8-.68,1.25-.9,2.74-1.28,4.29-.58,2.4-1.22,4.79-1.85,7.26-.68,2.89-1.8,6-1.38,8.88v.03Z"/>
      <path class="st7" d="M62.71,155.02c1.63.51,2.02-.14,1.43-1.36-1.64-3.19-2.61-4.14-1.77-7.98,1.95-10.18,7.17-37.88,9.2-48.28.14-.59.32-1.15.62-1.72.66-1.41,2.74-3.07,3.11-4.32.23-1.44-3.15.08-3.94.61-1.28.78-2.46,1.81-3.3,3.05-.52.78-.84,1.57-1.05,2.39-2.19,11.02-6.33,33.24-8.92,46.69-.35,1.85-.76,3.71-.32,5.59.45,2.28,2.55,4.61,4.92,5.32h.02Z"/>
      <path class="st7" d="M118.33,98.33c-.72.14-1.43.72-1.75,1.46-2.94,11.96-9.63,48.59-12.55,60.9-.18.79-.39,1.53-.8,2.24-.74,1.39-2.59,2.91-3.99,4.01-1.81,1.42-3.74,2.88-5.62,4.34-.93.76-3.93,2.9-3.14,3.71.18.12.52.13.99.03.85-.21,1.79-.65,2.62-1.14,2.87-1.78,5.56-4.13,8.21-6.12,1.26-.98,2.61-2.01,3.72-3.11,1.29-1.27,1.86-2.52,2.19-4.19,2.62-12.87,10.22-48.43,12.17-60.97-.18-.9-1.11-1.38-2.04-1.17h-.01Z"/>
    </g>
    <g>
      <path class="st4" d="M113.25,70.25l1.41,1.68-3.75,20.17c-.28,1.51.11,2.99,1.09,4.16.98,1.18,2.36,1.83,3.9,1.83h4.9l-12.12,65.24-14.59,12.32h-45.78l-13.56-16.11,1.73-10.91,9.8-61.84,19.14-16.53h47.83M67.47,154.73h17.29l1.21-.45,3.94-3.41.62-1.11,8.23-51.97.17-1.07-.39-1.45-2.84-3.54-1.44-.69h-17.29l-1.21.45-4.09,3.54-.62,1.11-8.23,51.95-.17,1.1.44,1.51,3,3.4.08.09h0s1.31.55,1.31.55M114.11,68.4h-49.38l-20.18,17.42-9.9,62.51-1.86,11.75,14.66,17.42h47.32l15.61-13.18,12.65-68.08h-7.13c-.99,0-1.84-.4-2.47-1.16-.63-.76-.87-1.67-.69-2.64l3.91-21.02-2.53-3.01h0ZM67.47,152.88h0s-3-3.41-3-3.41l.17-1.1,8.23-51.94,4.09-3.54h17.29l2.84,3.54-.17,1.07-8.23,51.97-3.94,3.41h-17.29Z"/>
      <path d="M114.11,68.4l2.53,3.01-3.91,21.02c-.18.97.06,1.88.69,2.64.63.76,1.48,1.16,2.47,1.16h7.13l-12.65,68.08-15.61,13.18h-47.32l-14.66-17.42,1.86-11.75,9.9-62.51,20.18-17.42h49.38M67.47,152.88h17.29l3.94-3.41,8.23-51.97.17-1.07-2.84-3.54h-17.29l-4.09,3.54-8.23,51.94-.17,1.1,3,3.4h0M114.11,67.74h-49.38l-.43.16-20.18,17.42-.22.4-9.9,62.51-1.86,11.75.15.53,14.66,17.42.51.24h47.32l.43-.16,15.61-13.18.22-.38,12.65-68.08-.65-.78h-7.13c-.79,0-1.46-.31-1.96-.92-.51-.61-.69-1.32-.55-2.1l3.91-21.02-.14-.55-2.53-3.01-.51-.24h0ZM77.21,93.55h16.73l2.46,3.06-.12.79-8.19,51.73-3.58,3.09h-16.74l-2.6-2.95.12-.79,8.19-51.7,3.73-3.22h0Z"/>
    </g>
  </g>
  <g>
    <path class="st2" d="M205.75,109.2c-.99,0-1.84-.4-2.47-1.16-.63-.76-.87-1.67-.69-2.65l2.5-13.44-56.9,47.95,8.71-46.89h13.62l4.57-24.62h-54.61l-1.15,6.2-3.43,18.43h11l-12.95,69.7-2.75,14.78h23.15,0s0,0,0,0h.16l80.74-68.29h-9.52Z"/>
    <g>
      <path class="st7" d="M205.59,110.77c-1.46-1.1-3.41-1.64-4.1-3.44-.61-1.43,1.05-5.42.72-6.65-.12-.46-.27-.94-.55-1.29-.41-.5-.96-.26-1.35.21-.79.83-.97,3.01-1.11,4.55-.76,8.07,5.47,7.96,4.96,8.41-13.34,11.72-62.3,51.84-74.86,63.78,0,.11.02.19.11.26.26.22,1.07.12,2.17-.33,1.75-.7,3.44-1.88,4.9-3.13,2.56-2.16,5.68-4.81,8.57-7.25,19.13-16.19,42.37-35.85,60.69-51.36.75-.64,1.44-1.82,2.21-2.13,3.97-1.63-2.37-1.63-2.37-1.63Z"/>
      <path class="st7" d="M153.07,90.42c-.68.23-1.45,1.16-1.81,2.06-.23.55-.4,1.16-.54,1.78-2.83,14.41-6.54,33.51-9.31,47.79-1,4.94,2.08,3.08,3.6.05.47-.92.79-1.91,1.03-2.93,2.83-14.11,6.94-35.55,8.99-46.07.11-.75.16-1.42-.17-2.06-.34-.65-1.04-.93-1.78-.64h-.02Z"/>
      <path class="st7" d="M167.16,90.72c2.24-1.05,2.74-4.4,3.27-6.62.49-2.31,1-4.67,1.49-6.98.22-1.05.44-2.15.5-3.21.25-3.69-2.33-4.46-4.06-1.22-.59,1.13-.91,2.47-1.2,3.73-.63,2.88-1.3,5.91-1.89,8.85-.27,1.4-.54,3.21-.02,4.47.37.91,1.1,1.3,1.88,1h.02Z"/>
    </g>
    <g>
      <path class="st4" d="M172.87,70.25l-3.89,20.92h-12.09l-1.82,1.51-8.71,46.89,3.01,1.75,52.94-44.62-1.55,8.35c-.28,1.51.1,2.99,1.08,4.17.98,1.18,2.36,1.83,3.9,1.83h4.46l-76.37,64.59h-20.41l2.34-12.59,12.95-69.7-1.82-2.19h-8.78l3.02-16.24.87-4.68h50.85M175.09,68.4h-54.61l-1.15,6.2-3.43,18.43h11l-12.95,69.7-2.75,14.78h23.15,0s0,0,0,0h.16l80.74-68.29h-9.52c-.99,0-1.84-.4-2.47-1.16-.63-.76-.87-1.67-.69-2.65l2.5-13.44-56.9,47.95,8.71-46.89h13.62l4.57-24.62h0Z"/>
      <path d="M175.09,68.4l-4.57,24.62h-13.62l-8.71,46.89,56.9-47.95-2.5,13.44c-.18.97.05,1.89.69,2.65.63.76,1.48,1.16,2.47,1.16h9.52l-80.74,68.29h-.17s0,0,0,0h-23.15l2.75-14.78,12.95-69.7h-11l3.43-18.43,1.15-6.2h54.61M175.09,67.74h-54.61l-.65.54-1.15,6.2-3.43,18.43.65.78h10.21l-12.81,68.92-2.75,14.78.65.78h23.15v-.43h0v.43h.16l.43-.16,80.74-68.29-.43-1.17h-9.52c-.8,0-1.46-.31-1.96-.92-.51-.61-.69-1.32-.55-2.1l2.5-13.44-1.08-.63-55.48,46.76,8.27-44.53h13.07l.65-.54,4.57-24.62-.65-.78h0Z"/>
    </g>
  </g>
  <g>
    <path class="st2" d="M264.61,152.88l3.26-17.68h4.45l-.8,4.32h24.49l6.1-33.14h-24.49l-.8,4.32h-4.45l3.28-17.81h19.12l-.8,4.32h24.62l5.3-28.81h-36.87c.13.61.17,1.24.09,1.87-.22,1.84-1.38,3.41-3.13,4.05l-13.67,5.05,3.02,17.49c.54,3.11-1.61,6.02-4.85,5.98-1.76-.02-3.37-.95-4.41-2.34l-7.85-9.62-10.92,58.78h7.13c.99,0,1.84.4,2.47,1.16.63.76.87,1.67.69,2.64l-4.47,24.04h52.67l5.33-28.95h-24.62l-.8,4.32h-19.12Z"/>
    <g>
      <path class="st7" d="M291.23,137.13c.78.34,1.96.18,2.65-.55.42-.44.59-1.09.72-1.73,1.06-5.54,3.76-18.59,4.83-24.56.18-1.29-.93-1.85-2.12-1.63-.57.1-1.12.39-1.47.89-.52.7-.72,2.6-1,3.81-1.25,6.32-2.83,14.29-4.07,20.55-.24,1.49-.76,2.59.46,3.22h.01Z"/>
      <path class="st7" d="M318.6,70.82c-1.5.64-1.48,2.16-1.87,3.85-.58,2.87-1.15,5.74-1.81,9-.56,2.79-1.02,5.1-1.5,7.48-.24,1.34-.53,2.17-.27,2.94.38.93,1.6,1.09,2.58.67.8-.32,1.29-1.19,1.46-2.09,1.05-5.23,3.12-15.19,4.02-20.19.26-1.63-1.29-2.22-2.61-1.68h-.02Z"/>
      <path class="st7" d="M299.01,175.09c.76.37,1.91.21,2.64-.51.46-.45.66-1.12.8-1.8,1.04-5.39,3.1-14.91,4.02-20.32.12-1.21-.85-1.81-1.98-1.65-1.9.32-2.08,1.76-2.47,3.77-.45,2.22-.95,4.74-1.52,7.59-.67,3.32-1.25,6.23-1.83,9.11-.27,1.69-.94,3.1.33,3.81h.01Z"/>
    </g>
    <g>
      <path class="st4" d="M321.68,70.25l-4.62,25.11h-20.86l.39-2.14-1.82-2.19h-19.12l-1.25,1.04-1.99-11.51,12.22-4.52c2.35-.87,4.01-3,4.32-5.56,0-.08.02-.16.03-.24h32.7M257.33,95.14l5.3,6.5c1.42,1.89,3.6,3.03,5.85,3.05.03,0,.06,0,.09,0,1.15,0,2.23-.27,3.18-.78l-1.19,6.46,1.82,2.19h4.45l1.82-1.52.52-2.81h20.73l-5.42,29.43h-20.73l.39-2.14-1.82-2.19h-4.45l-1.82,1.52-3.26,17.68,1.82,2.19h19.12l1.82-1.52.52-2.81h20.86l-4.65,25.24h-48.91l4.06-21.85c.28-1.51-.11-2.99-1.09-4.17-.98-1.18-2.36-1.83-3.9-1.83h-4.91l9.79-52.67M323.91,68.4h-36.87c.13.61.17,1.24.09,1.87-.22,1.84-1.38,3.41-3.13,4.05l-13.67,5.05,3.02,17.49c.53,3.09-1.58,5.98-4.78,5.98-.02,0-.04,0-.06,0-1.76-.02-3.37-.95-4.41-2.34l-7.85-9.62-10.92,58.78h7.13c.99,0,1.84.4,2.47,1.16.63.76.87,1.67.69,2.64l-4.47,24.04h52.67l5.33-28.95h-24.62l-.8,4.32h-19.12l3.26-17.68h4.45l-.8,4.32h24.49l6.1-33.14h-24.49l-.8,4.32h-4.45l3.28-17.81h19.12l-.8,4.32h24.62l5.3-28.81h0Z"/>
      <path d="M323.91,68.4l-5.3,28.81h-24.62l.8-4.32h-19.12l-3.28,17.81h4.45l.8-4.32h24.49l-6.1,33.14h-24.49l.8-4.32h-4.45l-3.26,17.68h19.12l.8-4.32h24.62l-5.33,28.95h-52.67l4.47-24.04c.18-.97-.06-1.88-.69-2.64-.63-.76-1.48-1.16-2.47-1.16h-7.13l10.92-58.78,7.85,9.62c1.04,1.39,2.65,2.32,4.41,2.34.02,0,.04,0,.06,0,3.2,0,5.31-2.9,4.78-5.98l-3.02-17.49,13.67-5.05c1.75-.65,2.9-2.21,3.13-4.05.08-.63.04-1.26-.09-1.87h36.87M323.91,67.74h-36.87l-.65.8c.12.55.15,1.1.08,1.65-.2,1.62-1.23,2.97-2.7,3.51l-13.67,5.05-.42.73,3.02,17.49c.24,1.38-.11,2.75-.97,3.76-.79.93-1.91,1.45-3.16,1.45-.02,0-.04,0-.06,0-1.48-.02-2.93-.79-3.89-2.08l-.02-.02-7.85-9.62-1.16.3-10.92,58.78.65.78h7.13c.8,0,1.46.31,1.97.92.51.61.69,1.32.55,2.1l-4.47,24.04.65.78h52.67l.65-.54,5.33-28.95-.65-.78h-24.62l-.65.54-.7,3.78h-17.78l3.01-16.36h3.11l-.65,3.54.65.78h24.49l.65-.54,6.1-33.14-.65-.78h-24.49l-.65.54-.7,3.78h-3.11l3.04-16.49h17.78l-.65,3.54.65.78h24.62l.65-.54,5.3-28.81-.65-.78h0Z"/>
    </g>
  </g>
  <g>
    <path class="st1" d="M230.13,56.35c-1.26-1.45-2.6-2.83-3.84-4.3-2.49-2.96-7.2-8.04-9.01-11.12-1.35-2.3-.63-4.5,2.27-4.05l17.96,6.13,7.48-15.47c.6-1.02,1.6-1.49,2.74-1.09l13.16,12.92,2.57,12.83c.51.6,6.17,2.09,7.41,2.66,1.61.75,11.58,10.54,12.87,12.3,1.48,2.01,1.39,3.64-.89,4.73-4.61,2.2-10.34,3.43-15.06,5.52-.15.41-.03.83,0,1.25.44,5.84,2.89,12.61,3.22,18.41.16,2.89-2.17,3.61-4.29,1.91l-12.88-13.03-10.38,56.42.29.89,8.85,8.92-4.83,24.97-.88.3h-53.05s-1.18-.3-1.18-.3l-11.61-11.94,4.69-24.62c.22-.44.57-.43,1-.48,1.79-.2,12.09.39,12.57-.01l6.28-33.88-.31-.9-10.93-11,3.53-17.98,23.82-20h8.44ZM252.41,49.47c-.7-.72-2.81-17.12-3.46-19.78-.39-1.58-.68-2.58-2.63-2.32l-8.22,16.81-18.86-6.44c-1.81-.29-1.93,1.76-1.09,2.9l10.04,12.17,3.72.27c.23-.2-.98-1.64-1.19-1.92-1.5-1.93-4.58-4.86-5.63-6.81-.19-.36-.4-.56-.29-1.04,2.33.24,13.66,5.39,15.02,4.84.94-.38,5.04-10.94,6.29-12.4l.76.15c1.04,4.42,1.26,9.31,2.3,13.69.46,1.92.44,2.19,2.29,3.04s12.62,3.97,13.02,4.75c.25.49-1.07.82-1.4.96-1.48.65-10.88,3.7-11.19,4.21-.8,2.06,2.78,15.94,2.22,16.59-.59.07-.98-.5-1.33-.88-2.17-2.35-4-5.11-6.07-7.56-.57-.43-.93,2.53-.91,2.96s.12.8.35,1.15l10.41,12.4.95.23c.81-.08,1.17-.88,1.06-1.62l-3.56-20.58,16.19-5.88c2.03-1.05.68-3.27-1.1-3.76l-17.7-6.14ZM262.11,51.91l-2.05-12.01c-.44-.94-8.03-8.56-9.2-9.46-.3-.23-.38-.57-.89-.44l3.1,18.66,9.04,3.25ZM241.09,48.36c-.38.52-1.47.92-2.14.84-3.25-.43-7.72-3.35-11.19-3.79l9.17,9.34c2.29,2.05,6.3,1.06,8.39,1.68.66.2,1.67,1.79,2.47,2.27,1.26.75,3.35,1.54,4.25.04.08-.13.82-1.89.84-2,.32-1.6-3.6-3.7-4.25-5.4-1.36-3.54-1.28-9.5-2.22-13.33l-.66.38-4.67,9.98ZM236.94,56.35c.19-.19-3.35-3.57-3.84-3.7l2.07,2.08,1.78,1.62ZM235.17,56.35c-1.51-2.32-2.9-2.68-5.63-2.36,1.51,2.32,2.9,2.68,5.63,2.36ZM262.12,57.24c-.55-.56-8.42-2.55-9.77-3.26l5.22,5.27c.29.06,3.63-1.14,4.13-1.39.23-.12.92-.1.42-.61ZM244.64,57.24h-22.66l-23.26,19.68-3.25,16.74h13.33l-8.87,47.54-13.31.17-4.48,23.35h53.61l4.15-23.39h-10.66l15.4-84.09ZM256.49,59.9l-2.52-2.66c-1.14,1.5-1.34,3.66-3.7,3.69l1.03.99,5.19-2.03ZM230.13,140.44h10.81c.18,0,1.17,1.41,1.63,1.48l10.39-56.41-.18-1.33-8.01-9.76c-.06-.26.68-4.8.82-5.13.13-.29.28-.59.67-.51l6.37,6.07-2.23-12.28-4.87-4.75-15.4,82.61ZM272.78,59.61l-16.28,6.37,10.79,10.5c4.72-2.06,10.35-3.32,14.97-5.47.45-.21,1.38-.5,1.49-1.03.12-.58-.33-1.62-.73-2.09l-9.79-9.76-.44,1.48ZM259.16,87.74l-1.48.74,9.76,9.78c.86.74,2.07,1.01,2.68-.16l-3.63-20.8-10.14-10.29,3.08,18.25-.27,2.47ZM207.92,94.55h-11.85l9.92,9.77,1.93-9.77ZM247.31,175.68l4.11-23.18-10.62-10.58-4.16,22.93.43.78,10.23,10.05ZM246.12,176.27l-10.22-10.36h-52.87l10.22,10.36h52.87Z"/>
    <path class="st8" d="M244.64,57.24l-15.4,84.09h10.66l-4.15,23.39h-53.61l4.48-23.35,13.31-.17,8.87-47.54h-13.33l3.25-16.74,23.26-19.68h22.66ZM239.61,59.31c-4.54-.11-11.56-.51-15.85,0-.49.06-.92.13-1.31.46l-21.77,18.51-2.53,13.31h13.33l-9.49,51.8-13.58.04-3.58,19.21c15.29-.23,30.62.31,45.91,0,.8-.02,2.9.33,3.2-.5l3.31-18.75c-.79-.02-1.58.02-2.37,0-2.76-.07-5.54.05-8.29,0v-1.19s15.4-82.91,15.4-82.91c-.79-.02-1.58.02-2.37,0Z"/>
    <polygon class="st0" points="246.12 176.27 193.26 176.27 183.04 165.91 235.91 165.91 246.12 176.27"/>
    <path class="st6" d="M252.41,49.47l17.7,6.14c1.78.48,3.13,2.7,1.1,3.76l-16.19,5.88,3.56,20.58c.11.73-.25,1.54-1.06,1.62l-.95-.23-10.41-12.4c-.23-.35-.34-.74-.35-1.15s.34-3.39.91-2.96c2.06,2.45,3.89,5.21,6.07,7.56.35.38.74.96,1.33.88.56-.65-3.03-14.53-2.22-16.59.31-.51,9.71-3.56,11.19-4.21.33-.14,1.66-.47,1.4-.96-.41-.78-11.25-3.92-13.02-4.75s-1.83-1.12-2.29-3.04c-1.04-4.38-1.26-9.27-2.3-13.69l-.76-.15c-1.25,1.47-5.35,12.02-6.29,12.4-1.36.55-12.7-4.6-15.02-4.84-.12.48.1.69.29,1.04,1.04,1.95,4.13,4.88,5.63,6.81.21.28,1.42,1.72,1.19,1.92l-3.72-.27-10.04-12.17c-.83-1.14-.72-3.19,1.09-2.9l18.86,6.44,8.22-16.81c1.95-.26,2.24.74,2.63,2.32.65,2.66,2.76,19.07,3.46,19.78Z"/>
    <polygon class="st5" points="247.31 175.68 237.07 165.63 236.64 164.85 240.8 141.92 251.41 152.5 247.31 175.68"/>
    <path class="st0" d="M283.74,69.97c-.11.53-1.04.82-1.49,1.03-4.62,2.15-10.25,3.41-14.97,5.47l-10.79-10.5,16.28-6.37,10.96,10.36Z"/>
    <polygon class="st5" points="270.11 98.1 259.16 87.74 259.42 85.26 256.34 67.01 266.48 77.3 270.11 98.1"/>
    <path class="st5" d="M262.11,51.91l-9.04-3.25-3.1-18.66c.51-.13.59.21.89.44,1.16.89,8.76,8.52,9.2,9.46l2.05,12.01Z"/>
    <path class="st0" d="M241.09,48.36l10.96,10.36c-.9,1.49-2.99.71-4.25-.04-.8-.47-1.81-2.07-2.47-2.27-2.09-.62-6.11.37-8.39-1.68l-9.17-9.34c3.47.44,7.94,3.37,11.19,3.79.67.09,1.77-.32,2.14-.84Z"/>
    <path class="st5" d="M241.09,48.36l4.67-9.98.66-.38c.94,3.83.86,9.79,2.22,13.33.65,1.69,4.57,3.79,4.25,5.4-.02.11-.76,1.87-.84,2l-10.96-10.36Z"/>
    <polygon class="st0" points="207.92 94.55 205.99 104.32 196.07 94.55 207.92 94.55"/>
    <path class="st0" d="M259.16,87.74l10.96,10.36c-.61,1.17-1.82.9-2.68.16l-9.76-9.78,1.48-.74Z"/>
    <path class="st0" d="M262.12,57.24c.5.51-.19.5-.42.61-.5.25-3.84,1.45-4.13,1.39l-5.22-5.27c1.35.7,9.22,2.69,9.77,3.26Z"/>
    <path class="st5" d="M283.74,69.97l-10.96-10.36.44-1.48,9.79,9.76c.4.46.85,1.51.73,2.09Z"/>
    <path class="st0" d="M235.17,56.35c-2.72.31-4.12-.04-5.63-2.36,2.72-.31,4.12.04,5.63,2.36Z"/>
    <path class="st5" d="M236.94,56.35l-1.78-1.62-2.07-2.08c.49.13,4.04,3.51,3.84,3.7Z"/>
    <path class="st5" d="M230.13,140.44l15.4-82.61,4.87,4.75,2.23,12.28-6.37-6.07c-.39-.09-.54.22-.67.51-.15.33-.89,4.88-.82,5.13l8.01,9.76.18,1.33-10.39,56.41c-.45-.07-1.44-1.48-1.63-1.48h-10.81Z"/>
    <path class="st5" d="M239.61,59.31l-1.1,2.31c-5,26.73-10.69,53.38-15.21,80.17l.31.88c1.12.84,2.02.3,2.97-.45v1.19c2.76.05,5.54-.07,8.29,0-1.48,1.83-1.74,3.97-2.28,6.16-.68,2.76-1.89,7.33-2.13,10.01-.09,1.06-.1,2.06.26,3.07-15.28.31-30.62-.23-45.91,0l3.58-19.21,13.58-.04,9.49-51.8h-13.33l2.53-13.31,21.77-18.51c.39-.34.82-.41,1.31-.46,4.3-.51,11.32-.1,15.85,0Z"/>
    <path class="st3" d="M239.61,59.31c.79.02,1.58-.02,2.37,0l-15.4,82.91c-.95.75-1.85,1.29-2.97.45l-.31-.88c4.52-26.79,10.21-53.44,15.21-80.17l1.1-2.31Z"/>
    <path class="st3" d="M234.87,143.4c.79.02,1.58-.02,2.37,0l-3.31,18.75c-.31.83-2.4.48-3.2.5-.36-1.01-.35-2.01-.26-3.07.24-2.68,1.45-7.25,2.13-10.01.54-2.2.8-4.33,2.28-6.16Z"/>
  </g>
</svg>