<?xml version="1.0" encoding="UTF-8"?>
<svg id="Layer_1" xmlns="http://www.w3.org/2000/svg" version="1.1" viewBox="0 0 778.09 204.65">
  <!-- Generator: Adobe Illustrator 29.5.1, SVG Export Plug-In . SVG Version: 2.1.0 Build 141)  -->
  <defs>
    <style>
      .st0 {
        fill: #fff;
      }

      .st1 {
        fill: #00163f;
      }

      .st2 {
        fill: #080809;
      }

      .st3 {
        fill: #fcbe3b;
      }

      .st4 {
        fill: #185ccb;
      }

      .st5 {
        fill: #ddd;
      }

      .st6 {
        fill: #032e82;
      }

      .st7 {
        fill: #f6b93a;
      }

      .st8 {
        fill: #f6f7f9;
      }
    </style>
  </defs>
  <g>
    <g>
      <path class="st0" d="M712.72,106l2.06-12.98h-7.79l-9.42,59.45h9.09l-3.87,24.41h-47.9l3.87-24.41h9.09l9.42-59.45h-7.79l-2.06,12.98h-24.41l5.9-37.26h93.99l-5.9,37.26h-24.28Z"/>
      <g>
        <path class="st5" d="M698.27,174.53c.86.49,1.74-.08,2.34-.85.78-.99,1.15-2.37,1.41-3.62.65-3.27,1.23-6.77,1.79-10.01.19-1.11.37-2.44.19-3.45-.24-1.58-1.41-2.43-2.72-1.48-.83.6-1.39,1.79-1.69,2.85-.79,3.13-1.21,6.43-1.83,9.63-.28,1.95-1.32,5.61.48,6.92h.02Z"/>
        <path class="st5" d="M738.16,71.12c-1.51.74-2.16,3.06-2.43,4.73-1.06,6.01-2.14,12.25-3.2,18.31-.27,1.57-.56,3.2-.82,4.75-.18,1.09-.34,2.41-.1,3.4.52,2.15,2.55,1.77,3.48-.02.47-.86.67-1.94.85-2.95,1.26-7.41,3.32-18.37,4.4-25.5.2-1.44-.38-3.52-2.16-2.73h-.02Z"/>
        <path class="st5" d="M662.84,103.56c1.08.65,2.12-.15,2.89-1.36.69-1.15,1.01-2.48,1.27-3.78.35-2.14,1.01-4.48.24-6.49-1.11-2.29-3.18-.62-3.88,1.13-.46,1.01-.74,2.25-.97,3.42-.33,2.06-1.28,5.69.43,7.08h.02Z"/>
        <path class="st5" d="M692.43,154.49c.87.53,2.03-.08,2.44-.97,2.55-12.32,7.89-46.81,10.25-60.02.07-.49.12-.92.06-1.37-.33-1.85-2.32-1.62-3.29-.07-.48.72-.72,1.53-.91,2.44-2.98,17.97-6.98,40.01-9.57,57.71-.03.85.37,1.95,1.01,2.27h.01Z"/>
      </g>
      <g>
        <path class="st3" d="M740.74,70.58l-5.32,33.58h-20.55l1.72-10.86-1.82-2.13h-7.79l-1.82,1.55-9.42,59.45,1.82,2.13h6.93l-3.28,20.73h-44.18l3.28-20.73h7.52l1.82-1.55,9.42-59.45-1.82-2.13h-7.79l-1.82,1.55-1.81,11.43h-20.68l5.32-33.58h90.26M742.9,68.75h-93.99l-5.9,37.26h24.41l2.06-12.98h7.79l-9.42,59.45h-9.09l-3.87,24.41h47.9l3.87-24.41h-9.09l9.42-59.45h7.79l-2.06,12.98h24.28l5.9-37.26h0Z"/>
        <path d="M742.9,68.75l-5.9,37.26h-24.28l2.06-12.98h-7.79l-9.42,59.45h9.09l-3.87,24.41h-47.9l3.87-24.41h9.09l9.42-59.45h-7.79l-2.06,12.98h-24.41l5.9-37.26h93.99M742.9,68.09h-93.99l-.65.55-5.9,37.26.65.76h24.41l.65-.55,1.97-12.43h6.46l-9.21,58.14h-8.53l-.65.55-3.87,24.41.65.76h47.9l.65-.55,3.87-24.41-.65-.76h-8.32l9.21-58.14h6.46l-1.94,12.22.65.76h24.28l.65-.55,5.9-37.26-.65-.76h0Z"/>
      </g>
    </g>
    <g>
      <path class="st0" d="M639.15,109.64l6.43-40.59h-19.34l-3.84,24.28h8.18l-5.02,31.67-21.9-55.95h-36.74l-3.84,24.28h8.44l-9.42,59.46h-8.44l-3.86,24.41h45.95l3.87-24.41h-8.44l5.02-31.67,21.88,56.08h28.3l10.7-67.54h-17.92Z"/>
      <g>
        <path class="st5" d="M624.08,129.06c-.06-1.42-.33-2.84-.73-4.18-.38-1.27-.88-2.51-1.37-3.74-5.82-14.38-12.92-32.75-18.88-47.09-.72-1.46-2.38-3.68-3.81-3.23-.7.38-.65,1.22-.41,2.15,5.2,13.31,17.89,45.51,23.47,58.78,1.4,2.96,1.88-.88,1.75-2.67v-.03Z"/>
        <path class="st5" d="M592.26,113.41c-.86-.18-1.14,2.07-1.31,2.82-.38,2.21-.76,4.54-1.14,6.81-1.25,7.56-2.5,15.09-3.75,22.62-.17,1.04-.34,2.05-.51,3.08-.24,1.68-.72,3.48-.47,5.11.46,2.54,2.56,2.25,3.49.21.22-.47.38-1,.51-1.56,1.55-8.81,3.91-22.48,5.16-31.28.14-1.29.11-2.59-.14-3.86-.28-1.34-.83-3.44-1.82-3.93h0Z"/>
        <path class="st5" d="M591.28,174.85c.92.49,1.85-.31,2.43-1.14,1.09-1.61,1.41-3.71,1.78-5.61.46-2.61.99-5.31,1.39-7.93.15-1.06.24-2.31.05-3.27-.28-1.56-1.27-2.44-2.57-1.51-1.18.89-1.82,2.69-2.18,4.16-.64,2.87-1.08,5.78-1.61,8.68-.29,1.89-1.04,5.38.69,6.61h.01Z"/>
        <path class="st5" d="M652.58,112.01c-.69.38-1.43,1.31-1.89,2.57-.24.63-.4,1.33-.54,2.06-2.64,15.32-5.82,34.26-8.5,49.98-.29,1.97-.88,4.15-.65,6.08.36,2.74,2.4,2.98,3.43.55,2.81-14,7.84-45.02,10.09-58.64.08-.73.11-1.32-.11-1.92-.27-.77-1.02-1.15-1.82-.69h-.01Z"/>
      </g>
      <g>
        <path class="st3" d="M643.42,70.89l-6.09,38.47,1.82,2.13h15.77l-10.12,63.87h-25.48l-21.42-54.91-3.53.38-5.02,31.67,1.82,2.13h6.29l-3.28,20.73h-42.23l3.28-20.73h6.87l1.82-1.55,9.42-59.46-1.82-2.13h-6.28l3.26-20.6h33.91l21.45,54.78,3.53-.38,5.02-31.67-1.82-2.13h-6.03l3.26-20.6h15.62M645.58,69.05h-19.34l-3.84,24.28h8.18l-5.02,31.67-21.9-55.95h-36.74l-3.84,24.28h8.44l-9.42,59.46h-8.44l-3.86,24.41h45.95l3.87-24.41h-8.44l5.02-31.67,21.88,56.08h28.3l10.7-67.54h-17.92l6.43-40.59h0Z"/>
        <path d="M645.58,69.05l-6.43,40.59h17.92l-10.7,67.54h-28.3l-21.88-56.08-5.02,31.67h8.44l-3.87,24.41h-45.95l3.86-24.41h8.44l9.42-59.46h-8.44l3.84-24.28h36.74l21.9,55.95,5.02-31.67h-8.18l3.84-24.28h19.34M645.58,68.39h-19.34l-.65.55-3.84,24.28.65.76h7.41l-4.52,28.53-21.02-53.7-.61-.42h-36.74l-.65.55-3.84,24.28.65.76h7.67l-9.21,58.14h-7.88l-.65.55-3.86,24.41.65.76h45.95l.65-.55,3.87-24.41-.65-.76h-7.67l4.52-28.52,21,53.82.61.42h28.3l.65-.55,10.7-67.54-.65-.76h-17.15l6.31-39.83-.65-.76h0Z"/>
      </g>
    </g>
    <g>
      <path class="st0" d="M550.73,93.32l-9.42,59.45h8.44l-3.87,24.41h-46.6l3.87-24.41h8.44l9.42-59.45h-8.44l3.84-24.28h46.6l-3.84,24.28h-8.44Z"/>
      <g>
        <path class="st5" d="M541.2,174.8c.57.33,1.42.21,2-.22.81-.56,1.21-1.57,1.43-2.52.84-4.22,1.69-9.12,2.41-13.36.18-1.18.4-2.89-.81-3.54-.77-.4-1.74-.07-2.34.59-.63.67-.92,1.63-1.11,2.53-.67,3.46-1.27,7.12-1.9,10.55-.18,1.57-1.34,5.02.3,5.95h.02Z"/>
        <path class="st5" d="M557.92,71.41c-1.95.82-2.02,4.34-2.45,6.2-.59,3.66-1.45,7.42-1.86,11.06-.02.58.03,1.11.27,1.59.66,1.3,2.41.98,3.18-.1.57-.72.81-1.66.99-2.56.74-4.1,1.62-8.89,2.3-13,.12-.83.18-1.82-.24-2.53-.42-.75-1.35-1.03-2.16-.68h-.02Z"/>
        <path class="st5" d="M536.01,154.84c.91.37,2.16,0,2.64-.87,2.05-10.41,8.27-49.82,10.18-60.83.13-.7.1-1.41-.65-1.8-.72-.38-1.69-.28-2.32.28-.86.79-.97,2-1.17,3.14-2.88,17.76-6.92,41.06-9.59,58.36-.02.77.24,1.42.9,1.71h.02Z"/>
      </g>
      <g>
        <path class="st3" d="M560.86,70.89l-3.26,20.6h-6.87l-1.82,1.55-9.42,59.45,1.82,2.13h6.29l-3.28,20.73h-42.88l3.28-20.73h6.87l1.82-1.55,9.42-59.45-1.82-2.13h-6.29l3.26-20.6h42.88M563.01,69.05h-46.6l-3.84,24.28h8.44l-9.42,59.45h-8.44l-3.87,24.41h46.6l3.87-24.41h-8.44l9.42-59.45h8.44l3.84-24.28h0Z"/>
        <path d="M563.01,69.05l-3.84,24.28h-8.44l-9.42,59.45h8.44l-3.87,24.41h-46.6l3.87-24.41h8.44l9.42-59.45h-8.44l3.84-24.28h46.6M563.01,68.39h-46.6l-.65.55-3.84,24.28.65.76h7.67l-9.21,58.14h-7.88l-.65.55-3.87,24.41.65.76h46.6l.65-.55,3.87-24.41-.65-.76h-7.67l9.21-58.14h7.88l.65-.55,3.84-24.28-.65-.76h0Z"/>
      </g>
    </g>
    <g>
      <path class="st0" d="M509.85,86.01l-14.53-17.27h-68.93l-3.84,24.28h8.44l-9.42,59.46h-8.44l-3.86,24.41h46.6l3.86-24.41h-8.44l2.41-15.19h14.8l2.95,3.51-5.72,36.09h29.73l3.87-24.41h0l3.21-20.25-7.3-8.83,10.07-8.7,4.54-28.69ZM476.4,109.5l-4.06,3.51h-14.8l3.17-19.99h14.8l2.95,3.51-2.06,12.98Z"/>
      <g>
        <path class="st5" d="M507.76,86.37c-.28-.88-.85-1.71-1.49-2.42-2.77-3.11-6.46-7.15-9.34-10.3-.92-1.01-1.92-2.04-3.21-2.53-.91-.34-2-.38-2.01.51.01.52.55,1.25,1.19,1.97,3,3.36,6.58,7.21,9.51,10.52.6.7,1.12,1.48,1.36,2.36.24.83.24,1.75.1,2.69-1.19,7-2.5,15.26-3.82,22.14-.54,2.33-2.33,3.83-4.2,5.28-1.55,1.25-3.09,2.47-4.64,3.73-1.13.96-2.22,1.76-2.25,3.15-.02.99.87,2.1,1.57,2.91,1.55,1.88,3.44,3.58,4.73,5.67,1.31,2.23.43,4.89.08,7.27-.81,4.78-1.64,9.59-2.45,14.35-.87,5.16-1.89,11.05-2.8,16.44-.14.85-.3,1.72-.27,2.51.04,2.47,2.53,2.65,3.5.56.4-.81.57-1.91.76-2.91,1.05-5.96,1.99-11.89,3.03-17.84.84-4.95,1.73-10.11,2.57-15.08.2-1.22.42-2.53.17-3.72-.26-1.38-1.15-2.54-2.06-3.58-1.12-1.29-2.3-2.57-3.44-3.9-1.92-2.21-1.9-3.64.52-5.55,1.48-1.22,3.08-2.46,4.61-3.7,1.3-1.07,2.76-2.12,3.61-3.4.9-1.29,1.15-2.86,1.41-4.39,1.1-6.56,2.52-14.57,3.45-20.31.1-.8.08-1.62-.18-2.4v-.02Z"/>
        <path class="st5" d="M451.15,174.46c.64.41,1.62.22,2.24-.31.67-.54,1-1.43,1.2-2.28.84-4.11,1.64-9.23,2.38-13.32.14-.83.3-1.72.09-2.52-.19-.77-.83-1.32-1.6-1.34-1.14-.04-2.02,1.01-2.36,2.08-.4,1.17-.55,2.45-.78,3.66-.49,2.78-1.01,5.73-1.5,8.46-.18,1.56-1.22,4.51.31,5.55h.02Z"/>
      </g>
      <g>
        <path class="st3" d="M494.47,70.58l13.44,15.97-4.31,27.2-9.56,8.26-.22,2.56,6.77,8.19-3.08,19.43h0s-3.62,22.85-3.62,22.85h-26.01l5.38-33.96-.41-1.47-2.95-3.51-1.41-.65h-14.8l-1.82,1.55-2.41,15.19,1.82,2.13h6.29l-3.28,20.73h-42.88l3.28-20.73h6.87l1.82-1.55,9.42-59.46-1.82-2.13h-6.28l3.26-20.6h66.5M457.55,114.85h14.8l1.2-.45,4.06-3.51.61-1.1,2.06-12.98-.41-1.47-2.95-3.51-1.41-.66h-14.8l-1.82,1.55-3.17,19.99,1.82,2.13M495.32,68.74h-68.93l-3.84,24.28h8.44l-9.42,59.46h-8.44l-3.86,24.41h46.6l3.86-24.41h-8.44l2.41-15.19h14.8l2.95,3.51-5.72,36.09h29.73l3.87-24.41h0l3.21-20.25-7.3-8.83,10.07-8.7,4.54-28.69-14.53-17.27h0ZM457.55,113.01l3.17-19.99h14.8l2.95,3.51-2.06,12.98-4.06,3.51h-14.8Z"/>
        <path d="M495.32,68.74l14.53,17.27-4.54,28.69-10.07,8.7,7.3,8.83-3.21,20.25h0l-3.87,24.41h-29.73l5.72-36.09-2.95-3.51h-14.8l-2.41,15.19h8.44l-3.86,24.41h-46.6l3.86-24.41h8.44l9.42-59.46h-8.44l3.84-24.28h68.93M457.55,113.01h14.8l4.06-3.51,2.06-12.98-2.95-3.51h-14.8l-3.17,19.99M495.32,68.09h-68.93l-.65.55-3.84,24.28.65.76h7.67l-9.21,58.14h-7.88l-.65.55-3.86,24.41.65.76h46.6l.65-.55,3.86-24.41-.65-.76h-7.67l2.2-13.88h13.94l2.56,3.04-5.67,35.79.65.76h29.73l.65-.55,3.87-24.41h0s3.2-20.25,3.2-20.25l-.14-.52-6.89-8.33,9.59-8.28.22-.39,4.54-28.69-.15-.53-14.53-17.27-.5-.23h0ZM461.27,93.68h13.93l2.56,3.04-1.97,12.45-3.69,3.19h-13.79l2.96-18.68h0Z"/>
      </g>
    </g>
    <g>
      <path class="st0" d="M418.69,96.35l3.04-19.21-7.07-8.4h-68.93l-3.84,24.28h8.44l-9.42,59.46h-8.44l-3.87,24.41h46.6l3.86-24.41h-8.44l2.1-13.24h30.77l19.5-16.83,4.12-26.05h-8.44ZM395.43,111.45l-4.06,3.51h-14.8l3.48-21.94h14.8l2.95,3.51-2.36,14.93Z"/>
      <g>
        <path class="st5" d="M413.23,98.44c.89.46,1.9.11,2.63-.6,1.21-1.21,1.49-3.04,1.87-4.69.18-.83.36-1.69.54-2.56.46-2.24.91-4.5,1.38-6.73.95-4.35,1.32-6.49-2.23-9.61-1.27-1.17-4.75-3.9-6.35-3.04-.94.93,1.63,3.24,2.27,4.07,1.17,1.33,1.85,2.6,1.82,4.28,0,1.1-.23,2.23-.45,3.32-.73,3.57-1.61,7.5-2.3,11.08-.27,1.45-.68,3.58.79,4.46h.02Z"/>
        <path class="st5" d="M422.66,98.73c-1.66.8-1.81,3.09-2.14,4.73-.48,2.8-.97,5.72-1.45,8.54-.22,1.28-.43,2.54-.65,3.82-.22,1.23-.38,2.48-.75,3.67-.45,1.56-1.48,2.81-2.72,3.83-4.78,3.98-9.88,7.88-14.62,11.86-.45.44-1.26,1.19-.87,1.69.2.21.7.25,1.32.13,1.34-.26,2.63-1.11,3.7-1.95,4.43-3.54,10-8.04,14.27-11.5.83-.68,1.63-1.4,2.2-2.3.54-.84.87-1.84,1.07-2.83.88-4.62,1.78-10.45,2.56-14.97.18-1.19.53-2.55.15-3.7-.27-.88-1.21-1.41-2.05-1.03h-.02Z"/>
        <path class="st5" d="M370.57,174.51c.52.3,1.23.22,1.82-.17.84-.55,1.33-1.64,1.59-2.64.92-4.09,1.59-8.69,2.32-12.7.14-.84.27-1.75.14-2.57-.22-1.57-1.67-2.29-2.92-1.23-.76.63-1.17,1.69-1.42,2.66-.68,3.19-1.18,6.56-1.79,9.79-.21,1.76-1.51,5.77.25,6.85h.02Z"/>
      </g>
      <g>
        <path class="st3" d="M413.81,70.58l5.98,7.1-2.91,18.38,1.82,2.13h6.28l-3.68,23.26-18.47,15.95h-30.08l-1.82,1.55-2.1,13.24,1.82,2.13h6.28l-3.28,20.73h-42.88l3.28-20.73h6.87l1.82-1.55,9.42-59.46-1.82-2.13h-6.28l3.26-20.6h66.51M376.57,116.79h14.8l1.2-.45,4.06-3.51.61-1.1,2.36-14.93-.41-1.47-2.95-3.51-1.41-.66h-14.8l-1.82,1.55-3.48,21.94,1.82,2.13M414.66,68.74h-68.93l-3.84,24.28h8.44l-9.42,59.46h-8.44l-3.87,24.41h46.6l3.86-24.41h-8.44l2.1-13.24h30.77l19.5-16.83,4.12-26.05h-8.44l3.04-19.21-7.07-8.4h0ZM376.57,114.96l3.48-21.94h14.8l2.95,3.51-2.36,14.93-4.06,3.51h-14.8Z"/>
        <path d="M414.66,68.74l7.07,8.4-3.04,19.21h8.44l-4.12,26.05-19.5,16.83h-30.77l-2.1,13.24h8.44l-3.86,24.41h-46.6l3.87-24.41h8.44l9.42-59.46h-8.44l3.84-24.28h68.93M376.57,114.96h14.8l4.06-3.51,2.36-14.93-2.95-3.51h-14.8l-3.48,21.94M414.66,68.09h-68.93l-.65.55-3.84,24.28.65.76h7.67l-9.21,58.14h-7.87l-.65.55-3.87,24.41.65.76h46.6l.65-.55,3.86-24.41-.65-.76h-7.67l1.89-11.93h30.21l.43-.16,19.5-16.83.22-.39,4.12-26.05-.65-.76h-7.67l2.92-18.45-.15-.53-7.07-8.4-.5-.23h0ZM380.61,93.68h13.93l2.56,3.04-2.28,14.39-3.7,3.19h-13.79l3.27-20.62h0Z"/>
      </g>
    </g>
    <g>
      <g>
        <path class="st0" d="M50.09,176.27l-14.13-16.79,11.59-73.17,19.64-16.95h48.44l2.08,2.47-3.82,20.55c-.22,1.18.07,2.3.84,3.22.77.92,1.81,1.41,3.01,1.41h6.21l-12.36,66.51-15.11,12.76h-46.4ZM74.33,96.1l-8.22,51.85-.22,1.43,3.21,3.65.22.23h.31s17.44,0,17.44,0l4.32-3.73,8.22-51.88.22-1.38-3.24-4.03h-17.79l-4.47,3.86Z"/>
        <path class="st3" d="M115.29,70.07l1.64,1.95-3.76,20.21c-.25,1.38.1,2.74,1,3.81.9,1.08,2.16,1.68,3.57,1.68h5.35l-12.15,65.4-14.71,12.42h-45.8l-13.7-16.28,1.74-11.02,9.75-61.57,19.23-16.61h47.84M69.03,153.98h18.31l.41-.35,3.92-3.38.4-.35.08-.52,8.18-51.62.17-1.07.1-.63-.4-.5-2.83-3.51-.43-.54h-18.4l-.41.35-4.07,3.51-.4.35-.08.52-8.18,51.6-.17,1.09-.11.67.45.51,2.97,3.38.03.03.03.03h0s.42.43.42.43M115.96,68.63h-49.05l-20.04,17.3-9.84,62.09-1.85,11.67,14.56,17.3h47l15.5-13.09,12.56-67.62h-7.08c-.98,0-1.83-.4-2.46-1.15-.63-.76-.86-1.66-.69-2.63l3.88-20.88-2.51-2.99h0ZM69.63,152.54h0s-2.97-3.38-2.97-3.38l.17-1.09,8.18-51.59,4.07-3.51h17.17l2.83,3.51-.17,1.07-8.18,51.62-3.92,3.38h-17.17Z"/>
      </g>
      <g>
        <path class="st5" d="M107.65,93.16c.43,3.11,3.4,5.09,6.19,5.59.49.07,1.54.27,1.64-.38-.05-.73-.6-1.29-1.02-2.02-.44-.69-.9-1.48-1.15-2.33-.72-2.38-.06-4.91.51-7.26.85-3.47,1.84-6.92,2.6-10.42.17-.89.27-1.85.14-2.72-.42-2.79-3.06-3.37-4.46-.79-.67,1.24-.89,2.72-1.27,4.26-.57,2.38-1.21,4.76-1.83,7.21-.67,2.87-1.79,5.96-1.37,8.82v.03Z"/>
        <path class="st5" d="M64.9,154.67c1.62.5,2-.14,1.42-1.35-1.63-3.16-2.6-4.12-1.76-7.93,1.94-10.11,7.12-37.62,9.13-47.96.14-.59.32-1.15.61-1.71.65-1.4,2.72-3.05,3.09-4.29.23-1.43-3.13.08-3.91.61-1.27.77-2.45,1.8-3.27,3.02-.52.78-.84,1.56-1.05,2.37-2.18,10.95-6.28,33.02-8.86,46.38-.35,1.84-.75,3.68-.31,5.55.45,2.26,2.53,4.58,4.89,5.29h.02Z"/>
        <path class="st5" d="M120.15,98.36c-.71.14-1.42.71-1.74,1.45-2.92,11.88-9.57,48.26-12.47,60.49-.18.79-.39,1.52-.79,2.23-.73,1.38-2.57,2.89-3.97,3.98-1.8,1.41-3.72,2.86-5.58,4.31-.92.75-3.9,2.88-3.12,3.68.18.12.52.13.99.03.84-.2,1.77-.64,2.61-1.13,2.85-1.77,5.52-4.11,8.16-6.08,1.25-.98,2.6-1.99,3.69-3.09,1.28-1.26,1.85-2.5,2.17-4.16,2.6-12.78,10.15-48.11,12.09-60.56-.18-.89-1.1-1.37-2.03-1.16h-.01Z"/>
      </g>
      <g>
        <path class="st3" d="M115.11,70.47l1.4,1.67-3.72,20.03c-.28,1.5.11,2.97,1.08,4.13.97,1.17,2.35,1.82,3.87,1.82h4.87l-12.04,64.8-14.49,12.23h-45.47l-13.47-16,1.72-10.84,9.73-61.43,19.01-16.42h47.51M69.63,154.38h17.17l1.2-.45,3.92-3.38.61-1.1,8.18-51.62.17-1.07-.38-1.44-2.83-3.51-1.43-.69h-17.17l-1.2.45-4.07,3.51-.61,1.1-8.18,51.6-.17,1.09.44,1.5,2.97,3.38.08.09h0s1.3.54,1.3.54M115.96,68.63h-49.05l-20.04,17.3-9.84,62.09-1.85,11.67,14.56,17.3h47l15.5-13.09,12.56-67.62h-7.08c-.98,0-1.83-.4-2.46-1.15-.63-.76-.86-1.66-.69-2.63l3.88-20.88-2.51-2.99h0ZM69.63,152.54h0s-2.97-3.38-2.97-3.38l.17-1.09,8.18-51.59,4.07-3.51h17.17l2.83,3.51-.17,1.07-8.18,51.62-3.92,3.38h-17.17Z"/>
        <path d="M115.96,68.63l2.51,2.99-3.88,20.88c-.18.96.06,1.87.69,2.63.63.76,1.47,1.15,2.46,1.15h7.08l-12.56,67.62-15.5,13.09h-47l-14.56-17.3,1.85-11.67,9.84-62.09,20.04-17.3h49.05M69.63,152.54h17.17l3.92-3.38,8.18-51.62.17-1.07-2.83-3.51h-17.17l-4.07,3.51-8.18,51.59-.17,1.09,2.97,3.38h0M115.96,67.97h-49.05l-.43.16-20.04,17.3-.22.39-9.84,62.09-1.85,11.67.15.53,14.56,17.3.5.23h47l.42-.15,15.5-13.09.22-.38,12.56-67.62-.65-.78h-7.08c-.79,0-1.45-.31-1.95-.92-.51-.61-.69-1.31-.55-2.09l3.88-20.88-.14-.54-2.51-2.99-.5-.23h0ZM79.31,93.61h16.61l2.45,3.04-.12.78-8.14,51.38-3.55,3.07h-16.63l-2.58-2.93.12-.79,8.14-51.36,3.7-3.2h0Z"/>
      </g>
    </g>
    <g>
      <path class="st0" d="M206.98,109.16c-.98,0-1.83-.4-2.46-1.15-.63-.76-.86-1.66-.68-2.63l2.48-13.35-56.51,47.63,8.65-46.57h13.53l4.54-24.46h-54.25l-1.14,6.16-3.4,18.3h10.93l-12.86,69.23-2.73,14.68h22.99,0s0,0,0,0h.16l80.2-67.84h-9.45Z"/>
      <g>
        <path class="st5" d="M206.82,110.71c-1.45-1.09-3.38-1.63-4.07-3.41-.61-1.42,1.04-5.38.72-6.6-.12-.46-.27-.93-.54-1.28-.4-.5-.96-.26-1.34.2-.78.83-.96,2.99-1.1,4.52-.75,8.02,5.43,7.91,4.92,8.35-13.25,11.65-61.88,51.49-74.36,63.35,0,.11.02.19.11.26.26.22,1.06.12,2.16-.33,1.73-.7,3.42-1.87,4.86-3.11,2.54-2.14,5.65-4.78,8.52-7.2,19-16.08,42.09-35.61,60.28-51.01.75-.64,1.43-1.8,2.2-2.12,3.95-1.62-2.36-1.62-2.36-1.62Z"/>
        <path class="st5" d="M154.65,90.5c-.67.23-1.45,1.15-1.79,2.04-.23.54-.4,1.15-.54,1.77-2.81,14.31-6.49,33.28-9.24,47.47-.99,4.9,2.07,3.06,3.57.05.47-.92.78-1.89,1.03-2.91,2.81-14.01,6.9-35.31,8.93-45.76.11-.74.16-1.41-.17-2.04-.34-.65-1.04-.92-1.77-.63h-.02Z"/>
        <path class="st5" d="M168.65,90.8c2.23-1.05,2.72-4.37,3.25-6.57.49-2.3.99-4.63,1.48-6.94.21-1.04.44-2.14.5-3.18.25-3.67-2.32-4.43-4.03-1.22-.59,1.13-.9,2.45-1.19,3.7-.62,2.86-1.29,5.87-1.88,8.79-.26,1.39-.53,3.19-.02,4.44.37.91,1.09,1.29,1.87.99h.02Z"/>
      </g>
      <g>
        <path class="st3" d="M174.32,70.47l-3.86,20.78h-12l-1.81,1.5-8.65,46.57,2.99,1.74,52.58-44.32-1.54,8.3c-.28,1.5.1,2.97,1.08,4.14.97,1.17,2.35,1.82,3.87,1.82h4.43l-75.85,64.16h-20.27l2.32-12.5,12.86-69.23-1.81-2.17h-8.72l3-16.13.86-4.65h50.51M176.53,68.63h-54.25l-1.14,6.16-3.4,18.3h10.93l-12.86,69.23-2.73,14.68h22.99,0s0,0,0,0h.16l80.2-67.84h-9.45c-.98,0-1.83-.4-2.46-1.15-.63-.76-.86-1.66-.68-2.63l2.48-13.35-56.51,47.63,8.65-46.57h13.53l4.54-24.46h0Z"/>
        <path d="M176.53,68.63l-4.54,24.46h-13.53l-8.65,46.57,56.51-47.63-2.48,13.35c-.18.97.05,1.87.68,2.63.63.76,1.47,1.15,2.46,1.15h9.45l-80.2,67.84h-.17s0,0,0,0h-22.99l2.73-14.68,12.86-69.23h-10.93l3.4-18.3,1.14-6.16h54.25M176.53,67.97h-54.25l-.65.54-1.14,6.16-3.4,18.3.65.78h10.14l-12.72,68.45-2.73,14.68.65.78h22.99v-.42h0v.42h.16l.42-.16,80.2-67.84-.42-1.16h-9.45c-.79,0-1.45-.31-1.95-.91-.51-.61-.69-1.31-.54-2.09l2.48-13.35-1.07-.62-55.11,46.45,8.22-44.23h12.99l.65-.54,4.54-24.46-.65-.78h0Z"/>
      </g>
    </g>
    <g>
      <path class="st0" d="M265.44,152.54l3.23-17.56h4.42l-.79,4.29h24.33l6.06-32.91h-24.33l-.79,4.29h-4.42l3.26-17.69h18.99l-.79,4.29h24.46l5.27-28.62h-36.62c.13.6.17,1.23.09,1.86-.22,1.82-1.37,3.38-3.11,4.02l-13.58,5.02,3,17.38c.53,3.09-1.6,5.98-4.81,5.94-1.75-.02-3.35-.94-4.38-2.33l-7.79-9.56-10.85,58.39h7.08c.98,0,1.83.4,2.46,1.15.63.76.86,1.66.68,2.63l-4.44,23.87h52.32l5.29-28.75h-24.46l-.79,4.29h-18.99Z"/>
      <g>
        <path class="st5" d="M291.89,136.89c.78.33,1.95.18,2.63-.55.42-.44.58-1.09.72-1.72,1.06-5.5,3.73-18.46,4.79-24.39.17-1.28-.92-1.84-2.1-1.62-.56.1-1.11.38-1.46.89-.52.7-.72,2.58-1,3.79-1.24,6.28-2.81,14.19-4.04,20.41-.24,1.48-.75,2.57.45,3.19h.01Z"/>
        <path class="st5" d="M319.07,71.03c-1.49.64-1.47,2.14-1.86,3.83-.57,2.86-1.14,5.7-1.8,8.94-.56,2.77-1.02,5.07-1.49,7.43-.24,1.33-.53,2.16-.27,2.92.37.92,1.59,1.09,2.57.66.8-.32,1.28-1.18,1.45-2.08,1.04-5.2,3.1-15.09,4-20.05.26-1.62-1.28-2.2-2.59-1.67h-.02Z"/>
        <path class="st5" d="M299.62,174.6c.76.36,1.9.21,2.62-.51.45-.45.65-1.12.8-1.78,1.04-5.36,3.08-14.81,3.99-20.19.12-1.2-.85-1.8-1.97-1.64-1.89.32-2.07,1.75-2.45,3.74-.44,2.21-.94,4.71-1.51,7.54-.66,3.3-1.24,6.19-1.82,9.05-.26,1.68-.94,3.08.33,3.78h.01Z"/>
      </g>
      <g>
        <path class="st3" d="M322.14,70.47l-4.59,24.94h-20.72l.39-2.12-1.81-2.17h-18.99l-1.25,1.04-1.97-11.44,12.14-4.49c2.34-.86,3.99-2.98,4.3-5.52,0-.08.02-.16.03-.24h32.48M258.21,95.19l5.26,6.45c1.41,1.87,3.58,3.01,5.81,3.03.03,0,.06,0,.09,0,1.14,0,2.21-.27,3.16-.78l-1.18,6.42,1.81,2.17h4.42l1.81-1.51.51-2.79h20.59l-5.38,29.24h-20.59l.39-2.12-1.81-2.17h-4.42l-1.81,1.51-3.23,17.56,1.81,2.17h18.99l1.81-1.51.51-2.79h20.72l-4.62,25.07h-48.58l4.03-21.7c.28-1.5-.11-2.97-1.08-4.14-.97-1.17-2.35-1.82-3.87-1.82h-4.87l9.72-52.31M324.34,68.63h-36.62c.13.6.17,1.23.09,1.86-.22,1.82-1.37,3.38-3.11,4.02l-13.58,5.02,3,17.38c.53,3.07-1.57,5.94-4.75,5.94-.02,0-.04,0-.06,0-1.75-.02-3.35-.94-4.38-2.33l-7.79-9.56-10.85,58.39h7.08c.98,0,1.83.4,2.46,1.15.63.76.86,1.66.68,2.63l-4.44,23.87h52.32l5.29-28.75h-24.46l-.79,4.29h-18.99l3.23-17.56h4.42l-.79,4.29h24.33l6.06-32.91h-24.33l-.79,4.29h-4.42l3.26-17.69h18.99l-.79,4.29h24.46l5.27-28.62h0Z"/>
        <path d="M324.34,68.63l-5.27,28.62h-24.46l.79-4.29h-18.99l-3.26,17.69h4.42l.79-4.29h24.33l-6.06,32.91h-24.33l.79-4.29h-4.42l-3.23,17.56h18.99l.79-4.29h24.46l-5.29,28.75h-52.32l4.44-23.87c.18-.97-.06-1.87-.68-2.63-.63-.76-1.47-1.15-2.46-1.15h-7.08l10.85-58.39,7.79,9.56c1.03,1.38,2.63,2.31,4.38,2.33.02,0,.04,0,.06,0,3.18,0,5.28-2.88,4.75-5.94l-3-17.38,13.58-5.02c1.74-.64,2.89-2.2,3.11-4.02.08-.63.04-1.25-.09-1.86h36.62M324.34,67.97h-36.62l-.64.8c.12.55.14,1.1.08,1.64-.2,1.61-1.23,2.95-2.68,3.49l-13.58,5.02-.42.73,3,17.38c.24,1.37-.11,2.73-.96,3.74-.78.93-1.9,1.44-3.14,1.44-.02,0-.04,0-.06,0-1.47-.02-2.92-.79-3.86-2.06l-.02-.02-7.79-9.56-1.15.29-10.85,58.39.65.78h7.08c.79,0,1.45.31,1.95.92.51.61.69,1.31.54,2.09l-4.44,23.87.65.78h52.32l.65-.54,5.29-28.75-.65-.78h-24.46l-.65.54-.69,3.76h-17.66l2.99-16.25h3.09l-.65,3.52.65.78h24.33l.65-.54,6.06-32.91-.65-.78h-24.33l-.65.54-.69,3.76h-3.09l3.02-16.38h17.66l-.65,3.52.65.78h24.46l.65-.54,5.27-28.62-.65-.78h0Z"/>
      </g>
    </g>
  </g>
  <g>
    <path class="st2" d="M231.2,56.66c-1.25-1.44-2.59-2.81-3.82-4.27-2.48-2.94-7.15-7.99-8.95-11.05-1.34-2.28-.63-4.47,2.26-4.02l17.84,6.08,7.43-15.37c.6-1.01,1.59-1.48,2.72-1.08l13.07,12.84,2.55,12.74c.51.6,6.12,2.07,7.36,2.65,1.6.75,11.5,10.47,12.79,12.21,1.47,2,1.38,3.62-.89,4.7-4.57,2.18-10.27,3.41-14.96,5.48-.15.41-.03.83,0,1.24.44,5.81,2.87,12.53,3.2,18.29.16,2.87-2.16,3.58-4.26,1.9l-12.8-12.94-10.31,56.04.29.88,8.79,8.86-4.8,24.8-.88.3h-52.69s-1.17-.29-1.17-.29l-11.54-11.86,4.66-24.46c.22-.44.57-.43.99-.48,1.78-.2,12.01.39,12.49-.01l6.24-33.65-.31-.9-10.86-10.93,3.51-17.86,23.66-19.87h8.38ZM253.33,49.83c-.7-.71-2.8-17-3.44-19.65-.38-1.57-.67-2.56-2.61-2.31l-8.17,16.7-18.73-6.39c-1.8-.29-1.91,1.75-1.08,2.88l9.97,12.09,3.7.27c.22-.19-.97-1.63-1.18-1.9-1.49-1.92-4.55-4.83-5.59-6.76-.19-.35-.4-.56-.29-1.04,2.31.24,13.57,5.36,14.92,4.81.93-.38,5.01-10.86,6.25-12.32l.75.15c1.03,4.39,1.25,9.25,2.29,13.6.46,1.91.44,2.17,2.27,3.02s12.53,3.94,12.94,4.71c.25.48-1.07.81-1.39.95-1.47.64-10.81,3.67-11.11,4.18-.79,2.04,2.76,15.83,2.21,16.47-.59.07-.97-.5-1.33-.88-2.16-2.33-3.97-5.08-6.03-7.51-.57-.42-.92,2.52-.9,2.94s.12.8.35,1.15l10.34,12.31.94.23c.8-.08,1.16-.88,1.05-1.61l-3.53-20.44,16.08-5.84c2.01-1.05.67-3.25-1.09-3.73l-17.58-6.1ZM262.97,52.25l-2.04-11.93c-.43-.93-7.98-8.51-9.14-9.39-.3-.23-.37-.57-.88-.44l3.08,18.54,8.98,3.22ZM242.08,48.72c-.37.52-1.46.92-2.13.83-3.22-.42-7.66-3.33-11.11-3.77l9.11,9.27c2.27,2.03,6.26,1.05,8.34,1.67.66.19,1.66,1.78,2.46,2.25,1.25.74,3.33,1.53,4.22.04.08-.13.81-1.87.84-1.99.32-1.59-3.58-3.68-4.23-5.36-1.35-3.52-1.27-9.43-2.2-13.24l-.66.38-4.64,9.91ZM237.97,56.66c.19-.19-3.33-3.55-3.82-3.68l2.05,2.06,1.77,1.61ZM236.2,56.66c-1.5-2.31-2.88-2.66-5.59-2.35,1.5,2.31,2.88,2.66,5.59,2.35ZM262.97,57.55c-.55-.56-8.37-2.54-9.71-3.24l5.19,5.23c.29.06,3.61-1.13,4.1-1.39.23-.12.92-.1.42-.61ZM245.61,57.54h-22.51l-23.1,19.55-3.23,16.62h13.24l-8.81,47.22-13.22.17-4.45,23.2h53.25l4.12-23.23h-10.59l15.3-83.53ZM257.38,60.19l-2.5-2.64c-1.13,1.49-1.33,3.64-3.68,3.67l1.03.98,5.15-2.01ZM231.2,140.19h10.74c.18,0,1.16,1.4,1.62,1.47l10.32-56.03-.18-1.32-7.96-9.7c-.06-.25.67-4.77.82-5.1.13-.29.28-.59.67-.5l6.32,6.03-2.22-12.19-4.84-4.72-15.3,82.05ZM273.56,59.89l-16.17,6.32,10.72,10.43c4.69-2.05,10.28-3.3,14.87-5.43.45-.21,1.37-.5,1.48-1.02.12-.57-.32-1.61-.72-2.07l-9.72-9.69-.44,1.47ZM260.03,87.83l-1.47.73,9.69,9.72c.85.74,2.06,1,2.66-.16l-3.61-20.66-10.07-10.22,3.06,18.13-.27,2.46ZM209.14,94.6h-11.77l9.85,9.71,1.92-9.71ZM248.26,175.18l4.08-23.02-10.55-10.51-4.13,22.78.43.77,10.16,9.98ZM247.09,175.77l-10.15-10.29h-52.51l10.15,10.29h52.51Z"/>
    <path class="st8" d="M245.61,57.54l-15.3,83.53h10.59l-4.12,23.23h-53.25l4.45-23.2,13.22-.17,8.81-47.22h-13.24l3.23-16.62,23.1-19.55h22.51ZM240.61,59.6c-4.51-.1-11.48-.51-15.75,0-.49.06-.92.12-1.3.46l-21.62,18.38-2.51,13.22h13.24l-9.43,51.45-13.49.04-3.56,19.09c15.19-.23,30.42.31,45.6,0,.8-.02,2.88.32,3.18-.5l3.29-18.62c-.78-.02-1.57.02-2.35,0-2.74-.07-5.5.05-8.24,0v-1.18s15.3-82.35,15.3-82.35c-.78-.02-1.57.02-2.35,0Z"/>
    <polygon class="st1" points="247.09 175.77 194.57 175.77 184.42 165.48 236.94 165.48 247.09 175.77"/>
    <path class="st7" d="M253.33,49.83l17.58,6.1c1.77.48,3.11,2.68,1.09,3.73l-16.08,5.84,3.53,20.44c.11.73-.25,1.53-1.05,1.61l-.94-.23-10.34-12.31c-.23-.35-.34-.73-.35-1.15s.34-3.36.9-2.94c2.05,2.43,3.87,5.18,6.03,7.51.35.38.74.95,1.33.88.55-.64-3-14.43-2.21-16.47.31-.51,9.65-3.54,11.11-4.18.33-.14,1.65-.47,1.39-.95-.4-.77-11.18-3.9-12.94-4.71s-1.81-1.12-2.27-3.02c-1.04-4.35-1.25-9.2-2.29-13.6l-.75-.15c-1.24,1.46-5.31,11.94-6.25,12.32-1.35.55-12.61-4.57-14.92-4.81-.12.48.1.68.29,1.04,1.04,1.93,4.1,4.85,5.59,6.76.21.28,1.41,1.71,1.18,1.9l-3.7-.27-9.97-12.09c-.83-1.13-.71-3.17,1.08-2.88l18.73,6.39,8.17-16.7c1.94-.26,2.22.73,2.61,2.31.65,2.64,2.74,18.94,3.44,19.65Z"/>
    <polygon class="st6" points="248.26 175.18 238.1 165.2 237.67 164.43 241.79 141.66 252.34 152.16 248.26 175.18"/>
    <path class="st1" d="M284.45,70.19c-.11.52-1.03.82-1.48,1.02-4.59,2.14-10.18,3.38-14.87,5.43l-10.72-10.43,16.17-6.32,10.88,10.29Z"/>
    <polygon class="st6" points="270.91 98.13 260.03 87.83 260.3 85.38 257.23 67.25 267.31 77.47 270.91 98.13"/>
    <path class="st6" d="M262.97,52.25l-8.98-3.22-3.08-18.54c.51-.13.59.21.88.44,1.16.89,8.7,8.46,9.14,9.39l2.04,11.93Z"/>
    <path class="st1" d="M242.08,48.72l10.88,10.29c-.9,1.48-2.97.7-4.22-.04-.79-.47-1.8-2.06-2.46-2.25-2.07-.62-6.07.37-8.34-1.67l-9.11-9.27c3.45.44,7.89,3.35,11.11,3.77.67.09,1.75-.31,2.13-.83Z"/>
    <path class="st6" d="M242.08,48.72l4.64-9.91.66-.38c.94,3.81.85,9.72,2.2,13.24.65,1.68,4.54,3.77,4.23,5.36-.02.11-.76,1.85-.84,1.99l-10.88-10.29Z"/>
    <polygon class="st1" points="209.14 94.6 207.22 104.31 197.37 94.6 209.14 94.6"/>
    <path class="st1" d="M260.03,87.83l10.88,10.29c-.6,1.16-1.81.9-2.66.16l-9.69-9.72,1.47-.73Z"/>
    <path class="st1" d="M262.97,57.55c.5.51-.19.49-.42.61-.5.25-3.81,1.44-4.1,1.39l-5.19-5.23c1.34.7,9.16,2.68,9.71,3.24Z"/>
    <path class="st6" d="M284.45,70.19l-10.88-10.29.44-1.47,9.72,9.69c.4.46.84,1.5.72,2.07Z"/>
    <path class="st1" d="M236.2,56.66c-2.71.31-4.09-.04-5.59-2.35,2.71-.31,4.09.04,5.59,2.35Z"/>
    <path class="st6" d="M237.97,56.66l-1.77-1.61-2.05-2.06c.49.13,4.01,3.49,3.82,3.68Z"/>
    <path class="st6" d="M231.2,140.19l15.3-82.05,4.84,4.72,2.22,12.19-6.32-6.03c-.39-.09-.54.21-.67.5-.15.33-.88,4.84-.82,5.1l7.96,9.7.18,1.32-10.32,56.03c-.45-.07-1.43-1.47-1.62-1.47h-10.74Z"/>
    <path class="st6" d="M240.61,59.6l-1.09,2.29c-4.97,26.55-10.61,53.02-15.11,79.63l.3.87c1.11.83,2,.3,2.95-.45v1.18c2.74.05,5.5-.07,8.24,0-1.47,1.82-1.73,3.94-2.26,6.12-.67,2.74-1.88,7.28-2.11,9.94-.09,1.05-.1,2.05.26,3.05-15.18.31-30.41-.23-45.6,0l3.56-19.09,13.49-.04,9.43-51.45h-13.24l2.51-13.22,21.62-18.38c.39-.34.81-.4,1.3-.46,4.27-.5,11.24-.1,15.75,0Z"/>
    <path class="st4" d="M240.61,59.6c.78.02,1.57-.02,2.35,0l-15.3,82.35c-.95.75-1.83,1.28-2.95.45l-.3-.87c4.49-26.61,10.14-53.08,15.11-79.63l1.09-2.29Z"/>
    <path class="st4" d="M235.91,143.13c.78.02,1.57-.02,2.35,0l-3.29,18.62c-.3.82-2.39.48-3.18.5-.36-1.01-.35-2-.26-3.05.24-2.66,1.44-7.2,2.11-9.94.53-2.18.79-4.3,2.26-6.12Z"/>
  </g>
</svg>